<?xml version="1.0"?>
    
<!--********* Copyright (c) 2024 Pareto Softare, LLC DBA Simplemaps.com ***************************************
************* Free for Commercial Use, full terms at  https://simplemaps.com/resources/svg-license ************
************* Attribution is appreciated! https://simplemaps.com *******************************************-->

<svg baseprofile="tiny" fill="#6f9c76" height="549" stroke="#ffffff" stroke-linecap="round" stroke-linejoin="round" stroke-width=".5" version="1.2" viewbox="0 0 1000 549" width="1000" xmlns="http://www.w3.org/2000/svg">
 <g id="features">
  <path d="M796.2 476.3l-1-0.6-0.6-0.9-0.6-1.1-0.7-0.9-1.5-1.4-0.8-1.2-0.3-0.4-1-0.6-4.9-1.1-1 0-1.8 0.3-2.1-0.1-1.1-0.5-0.6-0.8-1.1-2.4-0.7-0.8-1.7-0.8-0.8-0.8-0.3-0.6-0.3-0.5-0.1-0.7 0-0.7 0.1-1.1-0.2-0.3-0.5-0.2-0.9 0.2-1.7 0.9-0.9-0.1-0.8-0.3-1.5-0.1-1.8-0.7-2.7-0.3-0.4-0.2-0.7-0.7-0.9-0.5-2.2-0.8-1.5-0.1-1 0.1-0.5 0.1-0.8 0.5-0.3 0.2-0.5 0-0.9-0.4-0.5 0-1 0.1-1-0.1-2.4 0.3-1-0.2-1.2-0.8-0.5-0.1-0.6-0.1-0.5 0.1-0.2 0.1-0.3 0.2-0.6 0.3-0.3-0.2-0.1-0.2-0.1-0.2-0.1-0.2-1.5-0.3-1.5-0.1-0.5 0.1-1.1 0.6-0.4-0.1-0.4-0.2-0.4-0.3-0.5-0.3-0.9 0.1-0.6-0.3-0.3 0-0.4 0.1-0.9 0.5-0.7 0.2-2.2-0.4-0.4 0-0.4 0-0.4-0.1-0.3-0.3-0.6-0.9-0.3-0.2-0.7-0.3-2.6-0.4-0.4-0.2-0.4 0.1-0.9 0.3-1 0-0.4 0.1-0.5 0.3-0.4 0.6-0.2 0.1-0.1 0-0.4-0.1-0.2 0.1-0.1 0.1 0 0.1-0.1 0.1-0.8 0.5-0.5 0.1-0.9 0-0.9 0.3-0.5 0.1-0.5-0.1-1.2-0.5-0.6 0-0.4 0.2-0.7 0.6-0.4 0.1-0.2-0.1-0.2-0.5-0.3-0.1-0.2 0-0.5 0.2-0.2 0-1.9-0.6-2 0-1.7-0.4-0.5 0.1-1.5 0.5-0.5-0.1-1.8-0.5-0.8-0.1-1.2 0.1-0.2 0-0.3 0.1-0.3 0.2-0.7 2-0.2 0.3-0.6 0.6-0.6 0.5-0.7 0.2-0.5 0.1-1.5-0.6-0.4-0.1-0.9 0.1-5-0.7-1.5 0.1-0.6-0.2-1.3-0.8-0.5-0.4-0.7-0.4-1.3-0.4-0.7-0.3-0.6-0.6-1.9-0.9-2.5-0.4-0.8-0.3-2.3-1.8-0.3-0.4-0.6-1-0.3-0.4-0.4-0.2-0.9-0.2-0.8-0.6-0.9-0.1-0.5-0.2-1.1-1-0.7-0.3-0.7-0.2-0.6-0.2-1.2-1.1-0.6-0.3 0.6 0.8 0.2 0.5 0 0.5-0.4 0.2-3.5 0.4-0.4-0.1-0.8-0.8-0.5-0.2-0.6 0.6-0.8 2.1-0.8 0.4-0.9 0-0.4 0.1-3.8 1.5-1.1 0.7-0.3 0.3-0.3 0.4-0.8 2.5-0.5 0.8-0.2 0.4-0.1 0.6 0.1 0.5 0.3 1 0 0.5 0 0.5-0.6 1.3-1.2 2.7-0.3 1.1 0 1.1 0.1 1 0.4 1 1.6 3.1 0 0.5-0.6 0.1-1.4-0.5-2-0.3-0.3-0.4 0-0.7 0.1-0.9-0.3-0.4-0.6-0.2-1.6-0.1-0.3-0.1-0.4-0.2-0.5-0.4-0.8-0.3-1-0.1-2.8 0.5-0.8 0-0.7-0.2-0.8-0.4-0.6-0.5-0.7-1.4-0.6-0.6-0.7-0.4-3.1-0.8-1.6 0-0.8-0.1-2.6-1.8-1.5-0.6-2.9-0.1-0.3 0.1-0.6 0.3-0.4 0-0.7-0.2-2.6-1.4-1.3-0.4-0.4-0.1-0.4-0.3-0.3-0.1-0.4 0.1-0.7 0.2-1.6 0.1-0.7 0.3-2.5 1.5-0.4 0.1-0.2-0.1-0.9-0.7-0.2-0.2-0.3 0.1-0.4 0.1-1-0.3-0.6 0-0.4 0.3-0.2 0.5-0.3 0.4-0.3 0.4-0.4 0.1-0.5-0.1-0.5-0.2-0.5-0.2-0.4 0.2-0.5 0.9-0.3 0.4-0.3 0.2-0.9 0.3-0.2 0.3 0 0.7 0 1.2-0.1 0.4-0.3 0.4-2 0.3-0.8 0.5 0.2 1.1 0.2 0.3 0.8 0.7 0.2 0.3 0 0.4-0.3 0.3-0.3 0.2-0.3-0.1-1.1-0.7-0.3 0.4-0.3 0.5-0.3 0.6-0.1 0.5 0 0.4 0.1 0.2 0.1 0.2-0.2 0.3-0.7 0.9-0.2 0.3-0.6 0.5-0.2 0.4 0.1 0.5 0.9 0.9 0.4 0.2 0.7 0.2-0.8 0.6-0.7 0.6-0.5 0.2-0.4 0.3-0.4 0-0.4 0.1-0.5-0.2-0.6-0.1-0.2 0-0.3 0-0.1 0.2-0.2 0.3-0.1 0.2-0.1 0.3-0.1 0.2-0.1 0.2-0.3 0.4-0.3 0.4-0.3 0.4-0.3 0.5-0.2 0.6-0.2 0.5-0.2 0.5-0.2 0.4-0.4 0.2-0.3 0.2-0.3-0.1-0.3 0-0.2-0.1-0.2-0.1-0.2-0.2-0.2-0.2-0.1-0.2 0-0.3-0.1-0.2-0.1-0.2-0.2-0.2-0.2-0.2-0.2-0.2-0.2-0.1-0.1 0-0.2-0.1-1.1 0.5-1.1 0.5-0.4 0.4-0.5 0.4-0.3 0.6-0.3 0.6 0 0.3-0.1 0.2-0.2 0.2-0.1 0.2-0.2 0.1-0.2 0.1-0.2 0-0.2 0.1-0.2 0.1-0.2 0.1-0.1 0.2-0.2 0.2-0.7 1.3-0.8 1.3-0.3 0.3-0.3 0.3-0.9 0.7-0.9 0.7-0.6 0.2-0.6 0.3-0.2 0.1-0.2 0.2-0.1 0.2-0.2 0.2-0.3 0.4-0.4 0.4-0.4 0.2-0.5 0.2-1.2 0.1-1.3 0-1.5 0.4-1.5 0.4-0.2 0.2-0.2 0.1-0.3 0.4-0.3 0.4-1.1 0.9-1.2 0.9-0.6 0.2-0.6 0.2-0.3 0.2-0.3 0.2-0.2 0.4-0.1 0.4 0 0.2 0.1 0.1 0.2 0.4 0.1 0.3 0.1 0.1 0 0.2-0.2 0.1-0.1 0.1-0.7-0.2-0.6-0.1-0.2 0.1-0.1 0-0.5 0.3-0.4 0.3-0.2 0-0.1 0-0.4-0.1-0.3-0.1-0.2 0-0.2 0-0.6 0.4-0.6 0.4-0.2 0.3-0.3 0.3-0.1 0.3-0.1 0.3-0.2-0.1-0.2-0.1-0.3 0.1-0.2 0-0.5 0.3-0.5 0.2-0.1 0.1-0.1 0.1 0 0.1-0.1 0.1 0.1 0.1 0 0.1 0.1 0.2 0.1 0.1 0.1 0.1 0.1 0.1 0 0.2 0 0.1 0 0.3 0 0.2-0.1 1.4-0.2 1.4-0.1 0.2-0.1 0.2-0.2 0.2-0.2 0.2-0.4 0.2-0.3 0.3-0.4 0.2-0.4 0.2-0.5 0-0.5 0.1-0.2 0.1-0.2 0.1-0.2 0.2-0.1 0.1-0.3 0.5-0.3 0.5-0.8 0.3-0.7 0.4-0.3 0.3-0.3 0.4-0.4 1.2-0.4 1.1-0.3 0.3-0.2 0.3-0.7 0.3-0.2 0.1-0.5 0.2-0.3 0.2-0.3 0.2-0.1 0.4-0.1 0.3-0.1 0 0-0.1-0.1 0-0.1 0-0.1-0.1 0 0.2 0 0.1 0 0.4 0 0.3 0 0.1 0 0.2-0.1 0.1-0.1 0.2 0 0.1-0.1 0-0.1 0.1 0 0.1-0.1 0.2 0 0.2 0.1 1.2 0.1 1.3 0.1 0.3 0.1 0.2 0.1 0.1 0 0.2 0.2 0 0.1 0.1 0.2 0.1 0.3 0 0 0.2 0 0.2 0 0.2 0.1 0.2 0.1 0.1 0 0.2 0.1 0.2 0.1 0.1 0 0.1 0 0.1-0.3 0.5-0.3 0.4 0.3 0.2 0.2 0.1-0.1 0.2-0.1 0.1-0.2 0.2-0.2 0.1-0.3 0-0.3-0.1-0.5-0.2-0.4-0.2-0.2 0-0.1 0-0.1 0-0.1 0.1-0.1 0.1 0 0.2-0.1 0.1-0.1 0.1-0.1-0.1-0.2 0-0.2 0.2-0.1 0.1 0 0.1-0.1 0.1-2.6-1.4-1.7-0.9-0.9-0.5-0.8-0.6-0.7-0.6-1-1-1-1-0.4-0.2-0.3-0.2-0.5-0.1-0.4-0.1-0.1 0 0-0.1 0-0.1 0-0.1 0.1-0.1 0.1-0.1 0.4-0.2 0.4-0.1 0.2-0.2 0.2-0.1 0.1-0.2 0.2-0.2 0.1-0.2 0.2-0.2 0.1-0.4 0.2-0.4 0.2-0.4 0.1-0.5 0.1-0.5 0.1-0.5 0-0.4 0-0.5 0-0.1-0.1-0.2-0.1-0.1-0.1-0.1-0.1 0 0.1-0.1 0.1 0 0.2-0.2 0.3-0.2-0.1-0.1-0.1 0-0.1 0 0-0.2 0.1-0.1 0-0.1-0.1-0.3 0-0.3-0.3 0-0.2 0-0.2 0.4-0.1 0.3-0.1-0.2-0.2-0.1-0.1 0-0.1-0.1-0.2 0.1-0.1 0.1-0.1 0.1-0.2 0.1-0.1-0.2-0.2-0.3-0.1-0.6 0-0.5-0.2-0.3-0.1-0.3-0.5-0.6-0.5-0.7 0-0.1-0.1-0.2-0.1 0-0.1-0.4-0.1-0.5-0.3 0.2-0.3 0.2-0.6 0.4-0.7 0.5-0.2 0-0.2 0-0.3-0.1-0.2 0-0.5-0.3-0.4-0.2-0.3-0.1-0.2-0.1-2.9 0.2-2.9 0.2-1.8 0.1-2.8 0.1-2.4 0.2-3.3 0.2-2.1 0.1-2.6 0.2-0.9-0.3-0.4-0.1-0.5-0.1-0.5-0.6-0.5-0.6-1-4.4-0.9-4.4-0.8-3.6-0.7-3.7-0.3-3.8-0.4-3.8-0.1 0-0.1 0-0.1-0.1-0.1 0-0.1 0-0.1 0.1-2.7-0.1-2.4 0-2.5 0-2.7 0-0.1-0.1-0.1 0 0-0.2 0-0.2 0.1-5.8 0-5 0.1-0.9 0-0.2 0.1-0.2 0.2-0.1 0.3-0.1 0.1-0.3 0.1-0.2 0.1-0.8 0-0.8 0.5-7.5 0.5-7.6-3.2 1.8-3.2 1.7-0.2 0-0.2 0-1.4-3-1.7-3.4-1.2-2.5-1.9-3.9-0.4-0.4-0.5-0.4-2.3-1.4-2.3-1.5-1.1-1.2-1.1-1.1-2.4-3.2-2.4-3.1-0.4-0.3-0.3-0.4-0.4 0-0.3-0.1-0.4 0.2-0.4 0.1-2.2 1.2-2.2 1.3-2.2 1.2-2.2 1.2-0.4 0.1-0.4 0.1-1.2-0.1-3.1-0.3-3.1-0.2-3-0.3-3.1-0.3-3.4-0.3-3.4-0.3-3.4-0.3-3.4-0.3-2 0.3-2.1 0.3-2 0.4-2 0.3-2.1 0.3-2 0.3-2 0.4-2 0.3-1.3 0.2-1.3 0.3-1.2 0.2-1.3 0.2-0.8 0.2-0.7 0.1-0.8 0.2-0.8 0.1-1.9 0.4-0.4-0.2-0.5-0.2-1.7-1.9-1.2-1.5-1.3-1.4-1.2-1.5-1.3-1.4-1.2-1.5-1.3-1.5-1.3-1.5-1.3-1.4-1.5-1.8-1.3-1.4-1.2-1.3-2.5-2.7-1.3-2.2-0.3-0.7-0.1-1.6-0.2-0.7-0.4-0.9-0.5-0.6-1.4-0.9-2-1.3-2.6-1.8-3.3-2.2-3.7-2.5-4.1-2.7-4.3-2.9-4.4-3-4.5-3-4.4-2.9-4.1-2.8-3.9-2.6-1.4-1-2-1.3-2.8-1.9-2.2-1.5-0.7-0.4 0.6-0.7 0.3-1.2 0.3-0.5 1-0.3 1.3-0.8 0.2-0.7 0.6-2.3 0-1.6 0.1-1.1 0-0.5 0.1-0.1 0.3-0.1 0.1 0 0.6-0.4 0.7-0.3 0.6-0.6 0.1-0.2 0.1-0.3 0.2-0.3 0.3-0.4 0.1-0.1 0.2 0 0.2 0.1 0.1-0.1 0.1 0 0.1-0.1 0.3-0.2 0.2-0.1 0-0.2 1 0.6 0.5 0.1 1.2-0.3 0.4-0.3 0.9-1.1 0.4-1 0.1-0.6 0-0.5-0.1-0.3-0.2-0.1-0.3 0-0.5 0.2-0.4 0.2-0.4 0.6-0.3 0.2-0.3 0.4-0.1 0.4-0.1 0.4-0.2 0.2 0-0.2-0.1-0.2-0.2-0.2-0.3-0.1-0.8-0.1-0.4 0-0.4 0.2-0.2 0.4-0.1 0.5 0 0.3 0 0.2-0.1 0.2-0.2 0-0.2-0.1-0.4-0.3-0.2 0-0.2 0-0.2 0.3-0.2 0-0.5-0.3-0.5 0.1-0.3-0.1-0.6-0.2-0.2 0-0.2 0-0.1-0.2-0.2-0.1-0.2 0-0.3 0.1-0.3 0.2-0.3 0.3-0.1 0.2-0.1 0.5 0 0.2 0.2 0.4 0.4 0.7 0 0.1-0.1 0.1-0.1 0-0.3-0.2-0.4-0.1-0.5-0.1-0.1 0-0.2 0.1-0.1 0-0.2-0.2-0.1 0-0.2 0-0.2 0.1-0.4 0.4-0.3 0.5 0 0.1-0.3 0.5-0.1 0.5-0.2 0.4 0 0.3 0 0.7-0.3 0.3-0.1 0.3-0.1 1 0 0.1 0 0.6-0.1 0.3 0 0.1-0.2 0.5 0.1 0.5 0 0.3 0 0.6 0 0.2-0.1 0.1-0.4 0.1-0.3 0.1 0 0.1 0 0.2-0.1 0.4-0.1 0.3-0.1 0.1-0.2-0.1-0.6-0.3-0.5 0-1.8 0.5-1.3 0.4-1.4 0.4-1.3 0.4-1.3 0.4-1.3 0.3-1.3 0.4-1.3 0.4-1.3 0.4-2.8 0.9-2.8 0.8-2.7 0.9-2.8 0.8-2.1 0.7-2.1 0.7-2.1 0.6-2.1 0.7-2.1 0.7-2 0.7-2.1 0.6-2.1 0.7-0.5 0.2-1.6 0.5-2.1 0.7-2.1 0.6-2.1 0.7-2 0.7-2.1 0.6-2.1 0.7-2.1 0.7-0.1 0 0 0.1 0 7.2 0 7.2 0.1 7.1 0 7.1 0 7.1 0 7.1 0 7 0 7.1 0 6.9 0 7 0 6.9 0 6.9 0 6.9 0 6.9 0 6.8 0 6.8-1.5-0.1-0.8 0.1-2 0.9-2 0.3-1.3 0.5-2.8 0.2-0.7-0.2-0.7-0.4-0.4-0.3-0.4-0.5-0.6-1.5-0.3-0.6-0.3-0.4-1.4-0.9-0.8-0.7-0.7-0.8-1.4-2.6-1.5-2.5-1-1.4-2.3-3.1-0.2-0.6-0.1-0.6 0-0.6 0.1-0.6 0-0.5-0.2-0.5-0.5-0.7-3.8-3.5-2.6-1.8-2.3-1.5-3.7-2.5-3.5-2.3-1.6-0.6-1.7-0.2-5.3 0.9-3.4 0.7-3.9 0.7-1.5 0.3-4.9 1.9-1.3 0.8-3.5 1.2-4.7 4-3 3-3.4 3.4-0.9 0.9-0.1-0.5 0.2-0.7 0.9-2.2 0.2-1.1-0.2-1.2-0.2-0.6-0.3-0.5-0.2-0.3-0.2-0.1-0.2-0.3-0.1-0.4 0.2-1 0-0.3-0.2-0.3-0.6-0.7 0.2-0.5 0.2-0.5 0.2-0.6 0-0.6 0.2-0.5 0.3-0.2 0.4-0.2 0.3-0.2 1.1-2.1 1.2-1.7 0.2-0.2 0.1-0.3 0-0.4 0-0.6 0-0.3 0.1-0.3 0.7-0.6 0.2-0.3 0-0.3 0.1-0.5 0-0.2 0.4-1.3 0.2-1.1 0-1-0.3-1.2-0.6-1.3-0.4-0.7-0.9-0.6-0.3-0.7 0-0.6 0.2-0.3 0.2 0.4 0.2 0.6 0.2 0.6 0.4 0.3 0.2 0.1 0.8 0.5 0.1 0.2 0.1 0.3 0 0.1 0.1 0 0.3 1.1 0.3 0.6 0.2 0.2 0.2-0.2 0.3-0.6 0.1-0.8 0.1-0.6-0.2-1.3-0.5-0.9-0.8-0.5-1-0.1-0.1-0.7-1.2-0.7-2.3-0.9-2.2-0.2-0.3 0.1-0.3 0-0.2 0.2-0.3 0.2-0.1 0.1-0.3 0.6-0.1 0.1-0.6-0.2-1.5-2.1-0.8-0.6-0.5-0.1-2 0.3-1.4 0.6-0.8 0.6-0.5 0.2-0.5-0.3-1.3-1.5-0.3-0.5-0.5-1-0.3-0.5-0.3-0.5-0.2-1.1-0.2-0.6-1.1-1.2-0.3-0.6-0.3-0.1-0.3-0.1-0.2-0.1-0.1-0.4 0.1-0.2 0.1-0.3 0.1-0.3-0.1-0.6-0.2-0.6-0.4-0.4-0.9 0.5-1.1-0.1-0.5 0.1-0.2 0.2-0.1 0.2-0.2 0.2-0.2 0-0.3 0-0.5-0.3-0.3-0.1-2 0.4-2.1 0-0.3-0.3 0.1-0.7 0.8-2.5 0.3-1.2 0.1-4.1-0.1-0.6-0.7-1.4-0.1-0.3 0-0.3-0.1-0.7 0-0.2-0.4-0.4-0.9-0.7-0.1-0.5-0.1-0.5-0.2 0-0.2 0.1-0.3 0.1-0.3-0.1-0.1-0.1-0.3-0.2-0.6-0.9-2.1-4.3-0.2-0.5 0-0.6-0.1-0.3-0.2-0.2-0.1-0.3-0.1-0.1 0-0.3 0-0.7 0-0.3-0.2-0.3-0.6-0.6-0.2-0.3-0.2-0.6-0.3-0.5-0.3-0.6-0.2-0.3-0.2-0.1-0.5-0.2-0.2-0.1-0.2-0.4 0-0.3 0.1-0.3 0.1-0.4-0.1-2.6-0.1-0.6-0.1-0.5-0.6-0.8-0.9-0.6-1.9-0.9-7.8-1.5-1-0.5-0.5-0.3-0.5-0.4-0.4-0.6-0.1-0.7 0.1-1.4 0-0.7-0.1-0.5 0.1-0.3-0.2-0.5-0.1-1.1 0-1 0.3-0.6 0.4 0.9 0.3-0.4 0.2-0.8 0.1-0.5 0.3-0.2 0-0.4 0-0.4 0.1-0.3 0.3-0.2 0.2 0 0.2 0.2 0.2 0.2 3.5 0.7 1.1-0.1 1-0.3 0.6 0 0.2 0.5 0.3 0.1 2 0 0.3 0.3 0.3 0.1 0.2-0.1 0.2-0.3 0.1-0.3 0.1-0.1 0.3-0.1 1.1 0.1 0.6 0.1 0.5 0.3 0.7 0.7 0.7 0.9 0.2 0.1 0.6-0.1 0.2 0.1 0.1 0.2 0 0.2-0.2 0.2-0.2 0 0.4 0.5 0.5 0.4 1.8 0.9 0.7 0.1 0.6 0 0.7-0.2 0.5-0.3 1.2-1.2 0-0.1 0.1-0.1 0.1-0.1 0.1-0.1 0.2 0 0.5 0 0.3-0.1 0.6-0.2 0.4 0.1-0.2 1 0.7 0.2 1.5-0.4 1.5 0.7 0.5 0 0.3-0.4-0.1-0.5-0.4-0.3-0.3-0.3-1.3-0.8-0.9-0.8-0.6-0.1-1 0.4-1.1 0.1-0.6-0.5-0.8-2.4-0.5-0.9-0.7-0.7-1.8-1.2-0.2-0.2-0.2-0.2-0.2-0.2-0.8-0.1-0.2-0.1-0.1-0.2-0.2-0.2-1.5-0.9-0.1-0.6-0.1-0.7 0.1-0.6 0.4-0.3 0.2-0.1 0.1-0.3 0-0.2-0.1-0.3-0.3-0.1-0.3-0.1-0.2 0-0.1-0.4 0.2-0.5 0.5-0.3 0.6-0.2 0.4-0.1 0.6 0.1 0.2 0 0.4-0.3 0.1-0.2 0.3-0.4 0.2-0.3 0.9-0.6 0.6-0.3 0.5-0.1 0.3 0.2 0.4 0.6 0.5 0.4 0.5 0.1 0.2-0.4-0.2-0.6-0.3-0.7-0.3-0.4-0.1-0.3 0.1-0.4 0.2-0.4 0-0.3 0-0.2-0.2-0.5-0.1-0.1 0.2-0.5 0.3-0.5 0.6-1.1 0.2-0.4 0.2-0.6 1.9-2.3 0.2-0.5 0.1-0.8 0.1-0.6 0.4 0.3 0.6 1.1 0.8 0.4 1.1 0 1.1-0.3 0.8-0.5 0.7-0.8 0.2-0.1 0.5 0 0.2-0.1 0.3-0.6 0.3-0.6 0.3-0.6 0.4-0.3 0.2 0.3 0.3 0.4 0.2 0.5 0 0.5 1.9 0.3 0.4 0.1 0.6 0.6 0.4 0.2 0.4-0.2 0.7-0.6 0.4-0.1 0.5 0 1 0.3 0.4 0.1 6.9-0.9 1 0.3 1.6-0.3 1.1 0.3 3.7 1.7 2.2 0.3 1.1 0.6 0.6 0.2 2.1-0.2 0.5 0.1 1.3 0.4 0.5 0.1 0.5-0.2 0.9-0.5 0.5-0.1 0.2-0.1 0.2-0.3 0.2-0.1 0.5 0.2 0.1 0 0.1-0.1 0.2-0.2 0.2-0.2-0.1-0.3-0.4-0.3-2.3-0.5-0.2-0.1-0.1-0.3-0.2-0.1-0.2-0.2-0.7-0.1-1-0.3-2.8-1.4-0.6-0.1-0.2-0.1-0.4-0.6-0.1-0.2-0.2-0.1-0.9-0.1-1-0.5-0.4-0.3 0.1-0.4-0.1-0.2-0.2-0.3 0.1-0.2 0.2-0.4 0-0.2-0.1-0.2 0-0.3 0-0.8 0.1-0.6 0.3-0.4 0.4-0.1 0.4-0.2 0.2-0.6 0.4-1.2 0.9-1.5 0.3-0.4 0.3-0.2 0.5-0.2 0.2-0.2 0.8-1.1 0.3-0.5 0.4-1.3 0.4-0.6 0.6-0.7 0.2-0.3 0.1-0.2 0.2-0.7 0.2-0.4 0.4-0.9 0.1-0.5-0.1-0.5 0 0.2-0.1-0.5 0.1-0.4 0.5-0.8 0.2-0.4 0.1-0.6 0.2-2.2 0.7-2.8 0-2.3-0.6-1.7-1-1.3-1.2-1.1 0.5 0 0.7 0.6 0.4 0.2 0-0.2-0.4-0.3-0.2-0.5 0-0.6 0.1-0.6-0.4 0.2-0.5 0.5-0.5 0.4-0.4-0.2-0.1-0.6 0.3-0.9 0.7-1.4 0 0.6 0.3 0.3 0.4 0.1 0.4-0.3 0.1-0.5 0.1-1.2 0.2-0.5 0.2 0.6 0.2-0.1 0.2-0.6 0.2-0.4 0.2 0 0.5 0 0.2 0 0.3-0.1 0.1-0.1 0.1-0.4 0-1.3-0.4-0.8-0.7-0.3-0.7-0.1-0.4-0.2-0.2-0.4 0.1-1.1-0.4-2.2-0.5-0.9 0-0.4-0.2-0.2-1 0.1-0.4 0-0.4-0.4-0.8-1.4-0.4-0.2-1 0-2 0.4-1.3-0.2-2.5 0-0.5-0.1-0.4-0.3-0.8-0.9-0.4-0.1-1.4-0.3-0.4 0.1-0.2 0.3-0.1 0.4 0 0.8-0.1 0.3-1 1.3-0.4 0.3-2.1 0.8-0.6 0-0.8-0.5-0.2 0.1-0.2 0.2 0 0.5 0.2 0.1 0.6 0.2 0.1 0.1 0.2 0.2 0.1 0.3 0.2 0.4 0 0.4-0.1 0.1-2.8-0.2-0.6-0.3-0.2-0.2-0.2-0.1 0-0.2 0-0.5-0.2 0.1-0.2-0.3-0.8-0.7-0.2-0.2-0.1-0.2-0.1-0.4 0.1-0.2 0.3-0.2 0.2-0.3-0.1-0.4-0.5-0.1-0.4 0.6-0.4 1.2-0.5 0.2-0.7-0.1-0.7-0.1-0.5-0.3 0.7-1 0.2-0.2-0.5-0.1-0.5 0.2-1 0.6-0.4 0-0.5-0.2-0.4-0.3-0.4-0.5-0.9-0.7-0.3-0.5 0.5-1.4-0.1-0.7-0.3-0.5-0.5-0.1-0.5 0.4-0.2 0.6-0.1 0.7-0.2 0.6-0.4 0.1-0.5-0.6-0.6-1.1-0.4-0.5-0.5-0.2-1.5-0.3-1.2-0.5-2.9-0.6-0.9-0.6-0.5 0.1-1 0.8-0.9 0.4-3 0.7-0.4 0.3-0.6 0.9-0.4 0.1-0.3-0.1-0.5-0.4-0.3-0.1-0.2 0.1-0.2 0.2 0 0.2 0.1 0.1-0.1 0.3-1.8 3.1-0.4 0.3-0.2-0.5 0.1-0.4 0.4-0.7 0.1-0.4-0.1-0.2-0.3 0.2-0.8 0.8-0.6 0.4-0.6 0.1-0.4-0.2-0.4 0-0.1 0.6-0.1 1.6-0.1 0.5-0.3 0.5-0.4 0.2-0.4-0.1 0.4-0.6 0.3-0.5-0.1-0.4-0.5-0.1-0.8 0.3-0.1 0-0.3 0.3-0.2-0.1-0.1-0.2-0.8-0.6-0.2-0.1-0.2-0.1-0.1 0-0.1 0.2-0.2 0.3-0.7 2.1-0.4 0.4 0.1-0.4 0.1-1.2-0.3 0.3-0.2 0.3-0.1 0.4-0.2 0.3-0.2 0.1-0.4 0.1-0.2 0.1-0.1 0.1-0.1 0.2-1 1.8-0.4 0.5-0.4-0.1 0-0.3 0.1-0.4 0.1-0.4-0.2-0.1-0.3 0.1-0.7 0.4-2 2.2-0.6 1.1-0.4 0.4-0.4 0.2-0.9-0.1-0.3 0.1-0.2 0.2-0.4 0.5-0.2 0.2-0.7 0.4-0.3 0.5-0.3 0-0.6-0.2-0.3 0.3-0.1 0.6-0.1 0.4-0.6-0.2-0.3-0.5-0.2-0.2-0.2 0.2 0 0.7-0.1 0.3-0.2-0.2-0.4-0.6-0.3-0.2-0.3 0.1 0 0.2 0.1 0.8-0.1 0.3-1.4-1.9-0.4-0.2 0 0.6 0.1 1.5-0.4-0.3-0.2 0.2-0.2 0.4-0.2 0.3-0.2-0.7-0.3-0.4-1.3-0.6-0.4-0.3-0.3-0.4 0-0.6 0 1 0.1 0.5 0.3 0.4 0.2 0.8 0.2 0.3-0.3 0-0.3-0.2-0.3 0-0.2-0.1 0.1-0.2 0.1-0.3 0-0.3-0.1-0.1-0.5-0.4-0.2-0.2-0.1 0.2 0 0.2 0 0.1-0.8-0.1-0.7-0.3-0.7-0.5-0.4-0.6 0.1 0.8 1.5 1.7 0.4 1-0.5-0.2-0.8 0-0.1 0-0.3-0.4-0.2-0.5-0.3-0.4-0.4 0 0 0.2 0.3 0.4 0.1 0.6 0.1 0.7 0.6 0.3 0.8 0.9 0.1 0.3 0.1 0.3-0.1 0.4-0.1 0.3-0.9-0.7-0.4-0.4-0.3-0.5-0.3-0.5-0.3-0.3-0.3-0.2-0.6 0 0.2 0.1 0.2 0.2 0.1 0.4 0.1 0.5 0.1 0.3 0.8 0.9-0.1 0-0.2 0.2-0.3-0.2-1.8-0.6-0.3 0-0.1 0.1 0.1 0.4 0.2 0.2 0.2 0.1 0.2 0 0.4 0.3 0.1 0.6 0.1 0.6 0 0.3 0 0.2-4.3-2.5-1.6-1.3-0.9-1-0.5-0.2-0.6 0-0.6 0.1-0.5 0-1.4-1.1-0.6-0.7-0.6-0.5-0.9-0.2-2-0.1-0.8-0.3 0.6-0.7-0.4-0.3-0.1-0.5-0.1-0.4-0.2-0.4-0.8-0.5-0.4-0.1-0.4-0.1 0.5-0.7 0.6-1.6 1.1-1 1.4-0.3 1.3 0.4 0.4 0.5 0.4 0.5 0.6 1.2 0.5 0.3 3.4-0.7 0.7-0.5 1.3-1.6-6.9-10.8-3.3-8.8-0.3-0.8-0.2-0.6-0.3-0.2-0.8-0.1-0.8-0.3-0.6-0.5-1.1-1.6-0.1 0-4.1-7.3-1.4-1.1-1.5-0.7-8.8 0.1-4.7-2.3-0.6 0-0.4 0.3-0.1 0.5 0 2-0.1 1.5-0.2 0.6-0.3 0.1-4.2-2.9-0.7-0.7-0.4-0.5-0.1-0.4 0.2-0.4 0.2-0.6 0.2-0.2 0.1-0.1 0.2-0.1 0-0.3-0.1-0.2-0.7-1.3-1.6-1.9-0.1-0.4 0.3-0.3 1.7-1.1 0.9-0.8 0.3-0.7-0.4-0.4-1.2-0.1-0.3-0.4 0-0.6 0.1-0.6 0.2-0.6-0.2-0.7-0.1-0.2-0.5-0.5-0.2-0.3 0.2-0.2 0.2-0.2 0.2-0.2 0.3-0.6 0-0.1 0-0.2-0.3-0.5-0.5-0.4-2.2-0.6-5.6-1.9-5.5-2 3.1-8.7 3-8.3 0.5-0.7 0.8-0.6 1.7-0.9 0.5-0.4 0.4-0.4 1.1-1.5 0.9-1.7 0.5-1.8-0.3-1.7-1.1-1.5-3.3-2.5-1.2-0.5 1.3-8.3 1.4-8.4 0.5-1.4 0.8-0.8 4.9-2.2 1.5-1.6 1.4-1.8 0.5-1 0-1.2-1.3-1.7-0.1-1 0.2-0.5 0.8-0.8 0.2-0.5-0.1-0.5-0.3-0.4-0.2-0.4 0.3-0.7 0.4-0.3 1.5-0.7 0.3-0.4 0.6-1.4 0.1-0.3 0.7-1 1-0.8 1-0.6 0.9 0 0.6 0.4 1.4 1.9 1 0.6 0.3 0.3 0.3 0.5 0.1 0.3 0.2 0.3 0.5 0.2 0.3 0.1 1 1.3 0.4 0.6 0.9 0.8 0.9 1.4 0.9 0.8 0.1 0.4 0.1 0.4 0.2 0.5 0.3 0.4 1.1 0.9 0.5 0.9 0.2 1 0.1 1 0.3 1 0.2 0.3 0.2 0.7 0.1 0.3 0.3 0.3 0.9 0.8 0.4 0.8 0.2 0.7 0.2 0.5 0.8 0.1 0.7-0.1 0.2 0.1 1 1 1.3 0.8 0.3 0 0.3-0.1 0.5-0.8 0.3-0.2 4.5-1.8 2.3-1.3 1.7-2.1 0.4-0.6 0.1-0.3 0-0.4-0.2-1.4-0.2-0.5-0.3-0.4-1.6-0.5 0-0.9 0.2-1.2-0.4-1.4-1-1.9-0.6-2.4-0.6-5 0.1-2.4-0.1-1.1-0.5-0.8-1.2-0.2-0.5-0.3-0.1-0.7 0.3-0.5 0.6 0.1 2.9 1.7 1 0.3 1-0.2 4.1-3.1 2-2.6 0.9-0.8 3.1-0.8 1.9-0.8 0.9-0.8 0.3-1.2-0.4-1.1-0.8-0.9-0.5-0.9 0.3-1 0.5-0.9 0.2-0.5 0.2-1.2 0.2-0.7 0.3-0.5 0.3-0.4 0.5-0.1 1.8 0.5 5.3-0.1 0.4-0.2 1-1.5 3.2-2.8 1-0.4 4-0.9 2.6-1.3 0.4-0.3 0.1-0.4 0-0.4-0.2-0.7 0-0.6 0.2-0.4 0.3-0.2 0.3-0.3-0.1-0.2-0.2-0.2-0.1-0.2 0.2-0.2 0.3-0.1 1.3-0.1 0.4-0.1 0.3-0.3 0.2-0.7 0.5 0 0.4-0.2 0.2-0.3 0.1-0.9-0.2-2 0-0.6 0.4-0.4 0.4-0.1 0.4-0.3 0-0.9 0.1-0.8 0.4 0.1 0.9 0.6 1 0 0.2 0.2-0.4 0.6-0.4 0.7 0.3 0.3 0.5 0 0.6 0 0.9-0.4 0.6-0.7 0.1-1-1-3-0.1-1.2 0.5-0.6 1.2 0.2 0.4 0.3 0.4 0.4 0.4 0.4 0.2 0.6 0.4 0.7 0.5 0.3 5.5 0.3 0.4-0.1 0.5-0.3 0.5-0.2 0.4 0.3 0.5 1 0.3 0.3 0.5 0.2 0.9 0 0.5 0.2 0.2 0.8 0 0.8-0.2 0.5-0.3 0.4-0.5 0.2-2.1 0.4-0.1 0.3 0.2 0.5 0.4 0.6 0.2 0.4 0 0.1 0.7 0.7 1.6 0.2 1.9-0.3 1.2-0.7 0.3-0.5 0.3-0.6 0.4-0.3 0.5-0.1 0.6 0.3 0.2 0.3 0.1 0.5 0 0.9 0.5 1 1-0.1 1.2-0.7 0.8-0.7 0-1.3-0.3-1.2-0.1-1.1 1.2-1.4 0.7-1 0.4-0.4 0.7-0.3 0.6 0.1 0.6 0.3 0.6 0.3 0.6 0.2 0.6 0.1 0.7 0 0.6-0.2 0.4-0.4 0.5-1.2 0.3-0.5 0.6-0.3 1.3 0.1 0.6 0 0.5-0.4 0.3-1.1 0.3-0.4 0.6 0.4 0.4 1.2 0.3 1.5 0.3 1.1 1.4 2.8 0.7 2.4 0.1 0.3 0.3 0.5 0.3 0.4 0.4 0.4 0.5 0.3 0.2 0.1 0.4-0.3 2 0.1 0.1 0.3 0.3-0.1 0.3-0.4 0.2-0.3 0.1-0.2 0.3-0.1 0.5 0 0.2-0.2 0.1-0.2 0.2-0.3 0.3-0.1 0.2 0.1 0.5 0.5 0.2 0.2 1.3-0.2 0.4 0.2-0.3 0.7 0.5 0 0.5 0.4 0.4 0.1 0.3-0.1 0.3-0.3 0.3-0.3 0.3-0.3 0.8-0.3 2.7 0.1-0.2-0.7 0.1-0.3 0.3 0 0.3 0 0.2 0 0.2 0.2 0 0.2 0.2 0.2 0.2 0.1 0.1-0.1 0.1-0.1 0.2 0 1.6 0.2 0.4 0 0.5-0.3 0.5 0.3 0.9 0.4 0.2 0.3 0.5 0.8 0.3 0.4 2.3 0.9 0.9 0.7 0.3 0.3 0.2 0.6-0.2 0.2-0.8 0.4 0.4 0.5 0 0.6-0.1 0.6 0.1 0.6 0.8 0.8 0.3 0.4 0.2 0.7 0.5 0.6 4.1 1.2 1.1-0.2 0.6 0.2 0.9 0.7 0.4 0.4 0.6 1.3 0.5 0.3 1.1 0.1 0.4 0.4 0.2 0.5 0.3 1.4 0.1 0.5 0.2 0.3 0.1 0.3-0.1 0.6 0.7 0.9 0.4 0.3 0.9 0.6 0.3 0.4 0.3 0.5 0.3 0.4 0.5 0.4 1.8 0.3 0.3 0.2 0.4 0.4 0.2 0.2 1 0.2 0.3 0.1 0.2 0.3 0 0.4 0 0.3-0.2 0.4-1.2 1.6-0.2 0.7-0.1 1.6-0.1 0.7-0.5 1.6-0.1 0.7 0.1 0.7 0.4 0.7 0.8 1.1 0.4 0.4 0.5 0.3 0.5 0.1 1-0.2 0.1 0 0.9-0.4 1.3-1.1 0.6-1 0-1.2-0.8-2.5 0-0.7 0.3-1.4-0.1-0.7-0.1-0.2-0.3-0.4-0.1-0.3 0.1-0.3 0.3-0.6 0.2-0.3-0.3-1.4-1.2-0.7-1.3-0.4-0.5-0.4 0.2-0.3 0.5-0.2 0.2-0.4-0.4-1.3 0.1-0.4 0.5-0.3 1.9-0.6 0.5 0 0.5 0.1 0.5 0.3 0.9 0.8 1.4 0.7 0.5 0.5 0.6 0.9 0.8 0.8 3.4 1 0.3 0.7 0 1.4 0.5 0.9 4.9 4.7 0.6 0.3 0.4 0.2 0.4-0.1 1.1-0.3 0.6 0 0.5 0.2 0.6 0.3 0.3 0.6 0.2 0.6 0.2 0.4 1 0.5 0.4 0.3 0.6 1 1 0.7 0.8-0.3 1.5-1.7 3.8-2.1 3.2-2.7 0.5-0.8 0.8-4.3 0.3-0.8 0.2-0.5 0.4-0.1 1.8 0.8 0.7 0.2 0.6-0.1 0.4-0.5 0.2-0.5 0.2-1.3 0.3-0.3 1.1-0.2 0.4-0.5 0-0.5-0.3-1 0.1-0.5 0.2-0.4 0.3-0.4 0.7-0.6 0.7 0.2 2 2.9 0.4 0.2 1.6 0.4 0.4-0.1 0.1-0.4-0.2-0.6-0.4-1.1-0.1-0.7 0.3-0.5 0.5-0.3 0.4-0.2 0.6-0.1 0.4 0.2 0.8 0.6 0.5 0.2 0.6 0 0.6-0.1 0.6-0.3 0.5-0.2 1.9 0.2 1-0.2 1.5-0.9 0.4-0.2 0.3 0.2 0.3 0.8 0.2 1.3 0.1 0.7 0.4 0.2 0.5 0 0.4 0.2 0.4 0.3 0.4 0.5 0.2 0.6 0.2 1.3 0.2 0.5 0.4 0.6 0.4 0.4 1.4 0.8 0.6 0.2 0.5 0 0.6-0.3 0.4-0.5 0.2-0.6 0.3-0.5 0.5-0.3 0.9 0.1 2.1 0.7 0.7-0.4 0.3-1 0.1-1.2-0.3-2.3 0.2-1.3 0.4-0.9 0.3-0.8 0.7-0.1 1 0.6 0.3 0.1 1.2 0 0.3 0.1 0.2 0.2 0.4 0.6 0.2 0 0.6-0.3 0.3-0.1 1.7-0.3 0.2 0 0.1 0.2 0 0.2 0 0.2 0 0.2 0.5 0.4 0.6 0.3 0.6 0 0.5-0.4 0.3-0.6 0.2-0.7 0.3-0.7 0.5-0.3 0.5-0.1 0.9-0.5 0.3 0.2 0.7 0.7 0.2 0.5 0.1 0.5 0 0.5 0.2 0.4 0.4 0.2 2.8 0.1 0.9 0.4 0.7 0.9 0.2 1.5-0.1 0.7-0.3 0.5-0.3 0.4-0.4 0.4-0.1 0.5 0 0.6 0.3 0.7 0.2 0.4 0.4 0.1 1.2-0.1 0.2 0.3-0.2 1.4 0.1 0.5 0.4 0.4 0.5 0 0.7-0.1 0.6-0.1 0.5 0.4 0.4 1.2 0.2 0.4 0.4 0.4 1.6 1.3 0.9 0.4 6 0.6 0.5 0.1 0.4 0.5 0.2 0.5 0.3 0.3 0.3 0.2 0.4 0 2.1-0.5 1.2 0 0.9 0.5 0.4 0.6 1.2 0.4 0.3 0.3-0.1 0.9-0.5 0.2-1.3-0.2-0.6 0.6 0 0.5 0.3 0.5 1.3 1.1 0.7-0.3 0.7-0.8 0.8-0.6 1.1-0.2 1.2 0.1 1.1-0.2 0.9-1 1-2.1 0.3-0.5 0.7-0.9 0.2-0.4 0.1-0.6-0.1-1.3 0-0.7 0.1-0.6 1-2.3 0.1-0.3 0.2-0.2 1-0.4 1.4-0.1 1.1 0.5 0.4 1.3 0.1 1.2 0.4 1.1 0.8 0.7 0.8 0.7 1.2 0.6 9.3 1.1 2.2-0.4 6.2-2.1 6.1-2.1 0.8-0.7 0.5-1 0.3-1.5 0.3-3.2 0.2-1 1.1-5.9 0.5-1.6 0.7-1 1-0.6 1.1-0.3-0.4-0.2-1.1-0.5-0.7-0.6-0.5-1-0.9-2.8-0.5-0.7-0.1-0.2-0.8-0.2-1-0.6-0.8-0.4-0.3 0.1-0.6 0.2-0.3 0-0.3-0.1-0.7-0.4-0.6-0.2-1.5 0.2-0.5-0.1-0.9-0.3-0.4-0.1-0.8 0-0.2 0-0.2-0.1-0.1-0.1-0.1-0.1-0.1-0.1-0.1-0.2-0.2-0.1-0.7-0.6-0.3-0.3-0.3-0.7-0.1-0.4-0.1-0.4 0-1.1 0.1-0.5-0.4 0-9-0.2-0.2-0.1-0.2-0.3 0-0.3-0.1-0.3-0.2-0.2-2.4-0.4-0.5-0.4 0-0.7 0.4-0.5 1-0.5 0.4-0.3 0.1-0.3 0-0.6 0.1-0.2 0.5-0.4 0.2-0.2 0.1-0.3-0.6-0.8-4-1-2.3-1.7-0.7-0.3-0.3 0.4-0.2 0.5-0.5 0.4-0.7-0.2-0.5-0.4-1-2.4-0.2-0.6 0-0.6 0.4-0.8 0.6 0 3.8 0 3.2-3.5 1.8-1.5 1.8-0.8 1.2 0.1 1.3 0.2 1.2 0 1.1-0.9 0.9-1.5 0.4-0.4 2.1-0.9 0.5-0.3 1.1-1.3 0.4-0.4 1-0.5 0.7-0.7-1.4-2-0.4-0.5-0.1-0.6-0.1-1.5-0.2-0.7-0.2-0.3-0.2-0.2-2.1-0.7-0.4-0.4-0.1-0.6 0.1-1.7 0-0.7-0.1-0.6-0.1-0.2-0.2-0.1-1.2 0.1-0.4 0-0.3-0.2-0.1-0.3 0-0.3-0.1-0.2-0.3-0.2-0.2-0.2-0.1-0.3 0-0.4 0-0.4 0.5-1.5 0.9-0.6 1.1-0.2 1-0.5 0.3-0.5 0.5-1 0.4-0.5 3.9-3.6-1.9-1.8 1.7 0 0.8-0.2 0.8-0.6 0.7-0.6 0.8-0.1 0.8 0.2 0.7 0.5 0.7 0.3 0.6 0.1 0.7-0.1 0.6-0.3 1.1-0.9 0.5-0.1 0.7 0.3 0.8 0.7 1.3 1.4 0.7 0.3 0.7-0.5 0.5-0.4 0.4-0.1 0.9 0.2 2.3-0.3 0.8 0.3 1.5 1.1 0.8 0.2 1.7-0.7 0.8-0.6 0.5-0.9 0.4-1.8 0.1-0.8-0.2-0.9-0.5-0.9-0.8-0.5-4.8-0.9-1.5-0.7-1.3-1.3-1-1.3-0.4-0.2-2.2 1.2-0.7 0.1-0.8-0.2-2.2-1.8-0.8-0.3-2.1 0-1-0.2-0.9-0.9-0.5-0.8-0.2-1 0.1-0.9 0.4-0.9 1-1.5 0.2-0.5 0.1-0.4 0.1-1.2 0.4-0.4 0.6-0.1 0.6 0.1 0.4 0.4 0.5 0.8 0.5 0.8 0.7 0.5 0.6 0.1 0.6-0.4 1.1-1.3 0.6-0.5 0.9-0.5-0.6-2.4-0.2-0.6-0.3-0.1-2.6 0-0.6 0.3-1 1.4-0.8 0.1-3.1-0.8-0.4-0.3-0.2-0.2-0.2-0.6-0.2-0.3-1.1-0.3-3.1-0.2-0.6-0.7 0.5-0.9 2.3 0.8 0.8-0.7 0.1-0.5-0.1-0.5 0.1-0.4 0.1-0.5 0.4-0.2 0.8-0.1 0.2-0.4 0.3-0.9 0.5-0.7 0.6-0.6 0.5-0.6 0.1-0.9-0.6-0.5-0.8-0.3-0.6-0.4-0.4-0.7-0.2-0.2-0.5-0.1-1.4 0-0.5-0.1-0.2-0.4 0-0.4 0-0.5 0.2-0.4 0.4-0.6 0.4-0.2 1.1-0.3 0.7 0 1.1 0.2 0.1 0.2 0.1 0.3 0.2 0.3 0.3 0.5 0.4 0.3 0.4 0 0.3-0.7 0.1-0.6-0.1-0.7-0.5-1.2-0.1-0.2-0.1-0.8 1.2-0.1 0.6-0.3 0.4-0.6 0.4-0.5 0.6-0.2 1.8 0.3 0.3 0.3 0.6 1.4 0.4 0.3 1.7 0.4 0 1.2 0.2 0.4 0.4 0.1 0.4-0.1 0.3-0.3 0.1-0.6 0.1-0.7 2.1 0 0.3 0.3 0.3 0.1 0.3 0 0.5-0.7 0.3 0 0.3 0.1 0.3 0.2 0.2 0.7 0 0.5 0.2 0.4 0.4 0.3 0.8 0.2 2.5 0.2 0-2.3 0-0.2 0-0.7 9.1-0.4 0.5 0.1 0.2 0.4 0 0.8-1 0.7-0.3 0.5 0.1 0.7 0.4 0.7 1.1 0.6 0.5 0.5 0.2 0.3 0.2 0.4 0.3 0.1 0.3 0.1 0.4-0.2 0.1-0.3-0.2-1.2-0.1-0.2 0-0.3 0.2-0.5 1-1-0.4-0.7-0.1-0.2-0.3-1.3 0.6-1 1.1-0.7 0.9-0.2 2-0.1 1.2-0.6 0.4 0.1 1 0.5 0.6 0.1 1.9-0.6 2.2 0.3 0.6-0.3 0.3-0.7 0-0.5-0.2-0.6-0.2-0.7 0.3-0.6 0.8-0.2 1.3 0 2.5 0.6 0.1 0.1 0.8 0 0.6-0.3 1.2-1 0.6-0.3 1.5-0.1 3.6-1.7 0.8 0.1 0.7 0.3 1.8 1.5 0.6 0.1 0.4 0.2 0.2-0.5 0.7-0.3 0.8-0.2 0.7-0.4 0.4-1-0.7-0.9-0.3-0.6 0-0.3 0.2-0.2 0.1-0.3 0.2-0.1 0.4 0.4 0.3 0.2 0.3 0 0.3 0 0.1-0.2 0.4-0.4 0.2-0.2 0.3 0 1 0.3 0.6-0.2 1-0.5 0.7-0.1 0.5-0.3 0.1-0.1 0.3-0.2 0.3 0.1 0.6 0.2 2.2-0.2 0.2-0.2 0.2-0.2 0.2-0.3 0.1-0.1 0.3 0 0.5 0.2 0.2 0 0.6-0.1 0.9-0.6 0.3 0.2 1.4 1.2 0.7 0.5 0.8 0 1.4-0.7 1.4-1.2 1.4-0.7 1.5 0.6 1.8 2.4 0.3 0.4 0.3 0.2 0.3 0.1 0.4 0 0.2-0.1 0.2-0.3 0.2 0 0.7 0.2 0.2 0 0.6-1.2-0.7-4.1 0.5-0.9-0.1-0.5 0-0.2 0-0.9 0.4-0.5 2.8-1.3 0.6 0 1.3 0.4 0.5-0.2 0.1-0.8-0.2-1.4 0.1-0.5 0.6-0.2 2.2 0.3 3.1 1.1 0.6-0.2 0.6-0.6 0.7-1.2 0.6-1 0.7-0.5 1.7-0.6 0.4 0.3 0.2 2.6 0.3 0.6 2.7-1 7.8-2.8 1.4-0.2 2.8 0.1 1.4-0.2 0.5-0.4 0.9-0.9 0.4-0.2 4.4-0.3 0.7-0.1 1.3-0.8 0.7-0.1 1.7 0 0.9-0.2 0.5-0.7 0.5-0.9 0.5-0.6 0.6-0.3 1.5 0.4 1.5-0.3 4 0.2 1.6-0.6 1.4-1.1 0.9-1.6 0.4-0.5 0.6-0.5 0.8-0.3 0.7 0.1 2.2 1 3.5-0.5 0.3-0.4 0.2-1 0.5-0.2 0.2-0.4 0.1-0.5 0.2-0.7 0.4-0.3 0.6 0 0.5-0.2 0.1-0.8-1.8-1.1-0.8-1 0.4-1.1-0.5-0.5-0.2-0.1 1.4-0.8 0.5-0.1 0.3 0.1 0.3 0.2 0.4 0.1 0.4 0 1.1-0.5 0.6 0 1.7 0.5 1.5-0.6 0.5 0 0.6 0.2 0.2-0.1 0.3-0.4 0-0.4-0.1-0.7 0-0.4 0.4-0.4 1-0.7 0.2-0.6-0.1-0.9 0-0.6 0.2-0.7 0.3-0.7 0.4 0.3 0.3 0.1 2 0.3 0.5 0.3 0.5 0.4 0.8 1.4 0.4 0.5 0.5 0.3 0.6-0.3 0.2-0.6 0-0.6-0.1-1.5-0.5-0.4-0.5-0.2-0.3-0.4-0.3-1.3-0.1-0.3 0-0.3 0.2-0.3 0.4-0.2 0.4-0.1 3.9 1.5 0.6 0.8 0.4 1.2 0.5 0.8 0.9-0.3 1.8-1.9 0.6-0.1 3.1 1.4 4.4 0.6 2.9 1.6 0.6 0.6 1.8 2.6 0.6 0.4 1.8 0.2 0.9 0.3 3.1 2.1 0.3 0.1 0.4-0.4 0.7-1.2 0.5-0.4 2-0.7 0.2-0.2 0-0.3 0.1-0.4 0-0.3 0.3-0.6 0.9-1.4 0.4-0.2 0.2 0.1 1.6 0.6 0.5 0 0.5-0.1 0.5-0.3 0.4-0.5 0.9-0.6 1.2-0.2 1.3 0.2 0.9 0.5-0.3 0.5-0.4 0.7-0.1 0.6 0.2 0.6 1.6 2.1 2.1 2.9 0.4 1.1 0 0.4 0 0.5 0 0.1 0 0.1 0 0.1-0.1 1.1-0.1 0.5-0.1 0.5-0.1 0.7 0.4 1.1-0.2 0.4-0.3 0.5-0.1 0.6-0.1 0.7 0.2 0.6 0.8 1 0.2 0.5-0.1 1.1 0.3 1.2 0.9 1 1.1 0.6 0.9 0.3 0.9-0.1 0.5 0.2 0.4 0.4 0.8 1.2 0.2 0.8 0 0.8-0.3 0.6-0.4 0.3-1.2 0.3-0.7 0.7-0.1 1 0.1 2.8 0 0.2 0 0.2 0 0.2 0.4 0.5 0.1 0.5-0.1 1.3 0.1 0.2 0.1 0.1 0.4 0.2 0.1 0.1 0 0.3 0 0.7 0 0.5-0.1 1.6-1.3 0.3-0.4 0-0.4-0.2-0.8-0.4-0.5-0.2-0.8 0-0.5 0.3-0.2 0.7 0.1 1.4 1.4 0.1 0.3 0.1 0.1 0.6 0 0.9-0.1 0.9-0.2 0.6 0.9 0.4 0.3 0.4 0.3 0.5 0.7 1.4 0.4 0.5 0.5 0 0.8-0.6 0.6-0.7 1.1-2 0.6-0.5 0.6 0.1 0.7 0.4 0.7 0.1 0.7 0 0.2 0.1 0.2 0.4 0.2 0.5 0.1 1.9 0.5-0.1 1.2-0.6 0.5-0.1 0.2 0.2 0.5 0.4 0.2 0.2 0.4 0.1 0.3-0.1 0.8-0.4 0.6-0.5 0.2-0.5-0.1-1.7 0.1-0.8 0.2-0.7 0.3-0.5 0.5-0.2 4.4 0.5 0.5 0.1 0.4 0.3 0.4 0.4 1.3 2.5 0.5 0.6 0.7 0.2 0.5 0 0.5-0.3 0.3-0.6 0-1.1-0.4-0.6-0.6-0.3-0.7-0.1-0.6-0.3-0.4-0.3-0.1-0.2 0-0.5 0.1-0.4 0.1-0.5 0.1-0.4 0.5-1 0.1-0.4-0.2-0.4-0.5-0.4-0.8-0.5-0.2-0.4-0.1-0.6 0.4-0.2 2.5 0.3 0.7 0.5 0.8 0.9 0.7 1.1 0.3 1.1 0.3 0.4 1 0.4 0.3 0.6-0.1 0.5-0.8 1.8 2 0.8 2.1 0.8 0.1 0.1-0.1 0.2-0.1 0.1-0.2 0.6-0.3 0.1-0.3-0.1-0.4 0-0.1 0.1-0.1 0.5-0.1 0.1-0.2 0-0.7-0.2-0.2 0.1-0.1 0.4 0.1 0.5 0.1 0.4 0.4 0.6 0.5 0.5 0.3 0.5-0.2 0.9-0.6 1.4-0.2 0.7 0 0.7 0.4 0.4 0.7 0.2 0.7-0.1 0.5-0.3 0.9-1.1 0.6-1.1 0.3-0.2 0.3 0 2.3 1 0.6-0.3-0.1-1.3-0.5-1.1-0.4-0.8-0.6-0.4-0.7 0-2 0.4-0.1-0.3 0.1-0.7 0.2-0.7 0.2-0.5 1-1.1 1.2-0.2 2.9 0.4 2.9 0.3 1.3-0.2 0.3 0.2 0.2 0.5 0.2 0.7 0 1.4 1.1 0.5 0.2 0.6 0.2 1 0.4 0.5 2.9 0.7 3.8 0.9 0.3-0.1 0.1-0.3 0-0.5 0.1-0.3 0.2-0.2 0.7 0.1 0.2 0 0.3 0.3 0.5 0.6 0.3 0.1 0.5-0.2 0.3-0.2 0.1-0.5-0.1-0.9 0.2-0.7 1.3-0.3 0.4-0.6-0.1-0.4-0.2-0.5-0.1-0.3 0.3-0.2 1.2-0.2 0.4 0.1 0 0.1 0.1 0.8 0.2 0.1 1.2-0.4-0.9 6-0.4 1-0.4 0.5-0.6 0.1-3.4-0.6-0.6 0-0.5 0.3-0.5 0.6-0.4 0.8 1 0.8-2 0.8-0.4 0.4-0.5 3.4-1 0.2-0.4 0.2-0.3 0.5-0.3 0.7 0.1 0.5 0.8 0.9-0.6 1.2 3.6 2-1 2.3 1.4 1.1 0.3-0.1 0.6-0.6 1.6-1.7 0.5-0.5 0.2-0.3 0.2-0.4 0.2-0.7 0.1-0.3 0.1-0.2 0.4-0.2 0.2 0 0.5 0.1 0.2-0.1 0.1-0.3 0-0.3 0.1-0.6 0-0.3 0.1-0.2 0.1-0.1 1.7 0 0.4 0.1 0.8 0.5 0.3-0.1 1.6-1.3 0.7-0.3 0.7 0 0.9 0.2 1.5 0.2 0.3 0.2 0.1 0.6 0 0.7 0 0.6 0.3 0.3 0.7 0 0.2-0.2 0.5-0.9 0.2-0.1 1.5 0 0.2 0.1 0.2 0.5 0.2 0.5 0.2 0.4 0.4 0.2-0.1 0.8 0.1 0.6 0.8 0.8 1.2 1 0.6 0.2 0.5-0.6 1.1-3.5-0.1-0.2-0.2-0.4-0.4-0.4-0.1-0.2 0.2-1.9 0.2-0.8 0.3-0.4 3.6 0.2 0.3-0.3 0.3-1.8 0.3-0.5 0.2-0.2 0.2-0.1 1.1-0.1 0.3-0.2 0.1-0.5 0.3-1.1 0.2-0.6 0.2-0.3 0.7-0.2 1.9 0 0.8 0.2 1.7 0.9 0.6 0 2.9-2.2 2.6-2 3.5-2.6-1.6-2.7 1.5-1.2 0.8-0.4 0.8 0 2.3 0.2 0.8-0.1 1.1-0.6 1.4-0.6 2.5-1.2 3.9-1.9 3.2-1.5-0.3-0.9 0-0.6 0.2-0.6 0.3-0.7 0.5-0.7 0.4-0.2 4.5 1.2 0.9-0.3 1.4-1 0.5-0.2 0.4 0 0.6 0 0.4 0 0.4-0.4 0.1-0.7 0-0.7 0.1-0.7 0.5-0.6 0.6-0.1 1.3 0.1 0.5-0.1 1.6-0.8 0.4-0.2 0.6 0.1 0.3 0.3-0.2 0.9-0.4 0.3-1.8 0.5-0.4 0.3-0.5 0.5-0.2 0.5 0.3 0.5 1.1 0.3 0.4 0.4 0.2 0.9-0.1 0.9-0.4 0.8-0.5 0.6-0.4 0.7-0.2 1.1-0.2 0.4-0.3 0.4-0.5 0.5-0.2 0.3-1.2 1.4-1.3 0-2.9-1.1-1.4-0.1-0.4 0.2-0.4 0.3-0.1 0.2 2.3 4 0.2 0.5 0.2 1.4 0.7 1.2 1.9 1.5 2.7 2.2 4.2 3.4 4.1 3.3 4.1 3.3 4.2 3.3 3 2.5 2.7 3 1.1 1.3 1.9 2 2.4 3.9 1.5 2.7 2.4 4.2 2.4 4.2 2.4 4.3 2.4 4.2 3.2 5.9 3.1 5.9 3.2 5.8 3.1 5.9 2.4 4.5 2.4 4.5 1.1 2 1.3 2.5 2.3 4.5 2 4.2 2 4.3 2 4.3 2 4.2 1 2.2 1.2 2.6 0.6 1.8 0.3 0.6 0.5 0.7 0.7 0.8 0.8 0.5 0.7 0-1.3-2-0.3-1.1 0.7-0.4 0.4 0.2 0.8 0.9 0.4 0.2 0.5-0.1 0.3-0.3 0.3-1.2 0.3-0.5 0.3-0.3 0.9-0.4 0.2-0.2 0.3-0.4 0.2-0.2 0.3 0 0.9 0.1 0.9-0.2 0.9-0.5 0.8-0.9 0.5-1.2 0-0.5 0.1-0.6 0-0.7-0.1-0.5-0.2-0.5-0.6-0.7-0.3-0.4-0.1-0.5 0-0.6 0.1-1.2 0.2-0.7 0.3-0.4 0.4-0.3 0.5-0.1 1.9 0.3 0.9-0.2 0.3-0.9 0-0.6 0.2-0.5 0.2-0.5 0.3-0.4 0.4-0.4 0.4 0 3 1.4 0.6 0.1 0.3-0.2 0.2-0.4 0.4-0.3 0.5 0 0.2 0.5 0 1.2 0.2 0.7 0.3 0.4 0.9 0.5 1 0.5 0.5 0.1 0.6 0.1 0.6-0.7 0.3-0.2 0.5 0.1 0.4 0.3 0.1 0.4 0 0.6-0.2 0.8-1.5 3.7-0.6 2.1-0.1 0.5 0.2 0.3 0.4 0.3 0.6 0.1 1.2 0 2.7-0.9 2.7 0.1 0 1.3 0.4 1.2 0.5 1 0.6 0.9-0.5 0.8-0.4 0.8-0.2 0.9 0.3 0.8 0.6 0.4 4.8-0.2 0.5-0.3 0.7-1.1 0.4-0.3 0.4 0 0.8 0.6 0.5 0 1.6-0.3 1.1 0.2 1 0.3 0.5 0.4 1.4 1.2 0.5 0.3 1.1 0.2 0.6-0.1 0.6-0.2 0.4-0.3 0.4-0.6 0.4-0.3 0.4 0 0.4 0.2 0.3-0.1 0.2-0.2 0.4-0.2 0.2 0.1 0.3 0.1 0.2 0.2 1-0.3 0.5 0.3 1 1 2.9-2 1.5-0.7 0.6-0.8 0-2.4 0.6-0.7 0.9-0.2 1.7 0.5 3 0.3 1-0.3 0.8-0.9 0.6-1.3 0.5-1.4 0.2 0 0.2-0.1 0.3 0.1 0.5 0.2 0.4 0 0.4 0 0.3-0.2 2.5-0.3 2.5 0.3 0.6 1 0.3 0.4 0.5 0.3 2.5 0.5 0.5 0.2 1.3 1.2 0.5 0.3 0.4 0.1 1 0 0.5 0.2 0.5 0.2 0.4 0.4 0.7 1.3 0.3 0.3 0.8 0.4 0.7 0.7-0.1 2.2 0.6 1.1 2.5 1.8 0.3 0.3 0.7 0.9 0.2 0.7 0.1 0.5 0.1 0.5 0.8 0.9 0.2 0.6 0.1 0.6-0.5 1.9 0.3 1.1 0.6 1 0.5 1.2 0.1 0.8-0.1 0.8 0 0.7 0.2 0.6 0.3 0.3 0.7 0.1 0.2 0.2 0.2 0.3 0.3 0.5 0.1 0.3 0.9 0 0.8-0.7 0.8-0.4 0.8 0.6 0.6 0.8 0.7 0.4 0.7 0.2 0.9 0 0.8 0 0.5 0.6 0.5 0.6 0.7 0.5 0.4 0.1 0.8-0.1 0.4 0.2 0.2 0.3 0.6 1.3 0.2 0.2 0.4-0.2 0.4-0.2 0.3-0.2 0.5 0.1 1.5 0.7 0.2 0.2 0.8 1.2 0.2 0.4-0.1 0.6-0.4 0.2-1 0.2-0.2 0.1-0.1 2 0.1 0.9 0.5 0.4 1.3 0.3 0.5 0.4 0.3 0.8 0.1 1.3 0.1 0.5 0.4 0.6 1.5 1.6 0.4 1 0.3 2.8 0.6 1 0.9 0.5 0.9-0.3 0.4-0.3 0.4-0.3 0.5-0.2 0.5-0.1 0.5 0.2 1 0.7 0.5 0.2 0.8 0 0.5-0.2 0.4-0.2 0.7-0.6 0.3-0.2 0.4 0.1 0.3 0.3 0.3 1 0.3 0.5 0.4 0.1 0.4-0.1 0.8-0.3 0.5 0 0.3 0.2 0.4 0.4 0.3 0.4 0.3 0.2 0.4-0.1 0.8-0.6 0.4-0.2 0.5 0 0.9 0.1 0 0.3-0.2 1.4 0 0.6 0.3 0.4 0.4 0.1 0.3-0.1 0.4-0.4 0.7-0.8 1-0.3 0.9 0.2 0.5 0.9 0.9 1 0.9-1.1 0.7-1.8 0.5-1.2 1.3-0.9 1.4-0.5 1.5-1.4 0.4-0.2 0.1-0.2 0-0.3 0-0.4-0.2-0.4 1-0.6 0.2-0.1 0.2-0.3 0.2-0.2 0.2 0.1 0.1 0 0.2-0.1 0.4-0.6 0.2-0.7 0.4-0.5 0.7 0.1 0.9 0.5 0.4 0 0.6-0.1 0.4 0 0.3 0.1 0 0.4-0.2 0.4-0.2 0.4-0.1 0.3 0.1 0.4 0.2 0.4 0.6 0.6-0.5 0.5-0.4 0.3-0.5 0.2-1.1 0-0.4 0.4-0.8 1.2-0.4 0.6 0 0.5 0.1 0.5 0.4 0.5 0.6 0.4 0.5 0 1-0.3 0.5 0.1 1.5 1 0.5 0.5 0 0.5-0.2 0.7 0 0.8 0.3 0.6 0.6 0.4 1.1 0.5 0.6 0.5 0 0.4-0.3 0.3-0.3 0.7 0.2 0.4 0.5 0.5 1.4 1.2 0.3 0.3 0.1 0.3 0 0.4 0.2 0.4 0.3 0.2 0.3 0.1 0.5 0.1 1.9-0.2 0.7 0.1 0.6 0.3 1.2 0.9 0.3 0.7 0.5 2.4 0.3 0.9-2.7-0.8-0.9-0.4-1-0.3-3.1 1.3-0.7-0.1-1.3-0.4-0.6 0.1-0.5 0.3-0.5 1.2-0.3 0.6-0.9 0.7-0.4 0.5-0.3 0.6-0.3 0.7-0.1 0.5 0 0.6 0.2 0.8 0.5 1.1 0.7 0.7 0.4 0.7-0.6 1-0.4 0.5-0.2 0.4 0.1 0.4 0.2 1.4 0 0.5-0.1 0.4-1.7 2.3-1.1 1-0.3 0.5-0.3 0.5-0.4 1.2-0.2 0.4-0.5 0.3-2.5 1.1-2.2-0.2-0.6 0.3-0.4 0.4-0.9 1.1-1.2 0.7-4.2-0.4-4.9 0.7-0.8 0.6-0.7 1-2.9 7.3-0.6 3.7-0.3 1.3-0.4 0.8-0.3 0.8 0 0.8 1.8 9.8 0 1.1-0.4 2.2 0.1 1 0.4 1 1.5 2.6 0.2 0.7-0.1 0.6-0.1 0.6 0 0.6 0.2 0.6 0 0.5-0.2 1.1-0.1 0.6-0.1 0.5-0.3 0.3-1 0.1-0.5 0.2-0.5 0.3-0.2 0.6-0.1 0.6-0.1 0.5-0.2 0.4-0.3 0.5-0.2 0.6 0 0.6-0.2 0.4-1.5-0.1-2.8 0.5-1.3-0.2-0.4 0.1-0.5 0.3-0.3 0.3-0.5 1-0.5 0.5-1.6 1.1-0.6 0.8-0.3 0.1-1 0.3-0.3 0.2-0.4 0.3-0.5 1-0.4 0.3-1.7 0.4-1.7 0.7-0.6 0.1-0.4-0.2-0.1-0.5 0.2-0.5 0.3-0.5 0.3-0.5 0-1.2-0.4-0.9-0.8-0.8-0.8-0.4-1-0.1-2.1 0.6-1-0.2-1.2-0.6-0.4 0-0.4 0-2.7-0.2-2.4 0.2-1.4 0.8-0.6 0.1-1.5-0.3-2.1 0-8.5-3-3.8-2.6-0.9-0.4-2-0.5-0.5-0.2-1.1-1-0.6-0.2-0.6-0.1-0.6 0-0.5 0.1-0.6 0.3-0.2 0.4 0 1.3 0 0.4-0.3 0.7 0 0.4 0 0.3 0.2 0.6-0.1 0.4-0.3 1.2-0.1 0.7 0.1 0.6 0.1 0.6-0.1 0.5-0.1 0.5-3.3 6.9-2 7.7-0.9 1.9-0.1 0.6-0.3 1.7-0.3 1.1-1.5 2.4-0.9 1.9-0.6 2.1-0.6 4.4-0.6 2.9-0.3 1-0.6 1.5-1.7 2.9-0.8 3.2-0.7 1.6-0.1 0.9-0.2 0.7 0.8 1.3 0.8 0.3 3.4 0.5 2.3 1 0.3 0.6 0.1 1.2 0 1.2-0.5 2.9-0.6 2.3-1 1.7-1.5 0.2-1-0.7-1.9-2.1-1.1-0.7-1.1-0.2-1.2 0.4-4.2 2.1-1.2 0.3-0.8-0.4-0.5-0.5-0.3-0.2-1.5-0.3-0.3-0.2-0.2-0.4 0-0.8-0.1-1.1-0.4-1.3-0.5-0.9-0.8-0.1-0.9-0.2-0.9 0.4-1.8 1.3-8.9 2.8-1.8 1-0.9 0.4-1 0-2.8 1.1-0.5 0-1.9-0.6-1 0-3.6 1.4-1.6-0.2-0.4 0.1-0.5 0.4-0.4 1.1-0.4 0.3-0.5 0.1-1.7-0.1-1.6 0.6-1.6-0.2-1 0-0.9 0.5-0.8 0.8-2.2 1.9-1.1 0.5-0.4 0.4-0.4 0.9 0.6 0.8 2.8 1.7 1 0.1 4-0.8 0.6 0 0.4 0.2 1.1 1 3.6 1.4 0.4 0.2 0.1 0.4-0.1 0.4-0.4 0.3-1.4 0.3-0.8 0.4-0.4 0.6-0.1 0.3 0.1 0.3 0.4 0.5 0.2 0.4-0.1 0.4-0.3 0.7-0.6 2.3-0.2 1.3 0.1 1.1 0.8 4.6 0 1.2-0.6 2.2-0.1 1.2 0.1 0.6 0.3 0.4 0.8 0.7 0.2 0.5 0.2 0.6 0 0.5 0 0.7 0.3 0.6 0.3 0.7 0.8 1.2 2.7 7 2.6 6.9-0.1 1-0.3 1-1.2 2.1 0.4 0.5 0.8 0.2 0.9 0.4 0.3 0.5 0.2 0.5 0 0.6 0.1 0.6 0.1 0.6 0.5 0.9 0.1 0.6-0.1 0.6-0.3 0.5-0.5 0.3-0.5 0.1-0.4-0.1-1.2-0.9-0.9 0-0.9 0.4-1.8 1.3-1.9 0.9-1 0.6-0.3 0.8 0.5 0.8 0.7 0.6 1.5 0.8 1.1 0.1 0.4 0.3 0.3 0.5-0.1 0.6-0.5 0.3-1.2 0.2-1.6 0.6-0.5 0.4-1 0.4-0.4 0.1-0.8-0.3-0.4 0-0.3 0.2-0.5 0.8-0.5 1.8-0.4 0.9-0.8 1.3-0.2 0.4 0 0.7 0.1 0.5 0.2 0.4 0.2 1.2 0.2 0.5 0.6 0.9 0.2 0.5 0.1 0.3-0.2 0.4-0.2 0.6 0 0.4 0.5 2.4 0.2 0.5 0.2 0.4 0.3 0.4 0.4 2.2-0.2 0.6-0.2 0.4-0.9 0.5z m-25.6-133.6l0.1-0.5 0.1-2 0.2-1 0-0.2 0-0.1 0.4-0.2 2-0.3 0.3 0 0.5 0.2 0.4-0.6 0.4-1.3-0.4-1.6-0.3-0.7-0.6-0.4-0.2-0.3-0.2-0.6-0.2-0.4-0.7-0.7-0.5-0.2-1.5-0.2-0.4 0-0.3 0.3 0 0.2 0.1 0.6 0.1 0.4 0 0.4 0 0.3 0.1 0.3-1-0.2-0.7-0.6-0.7-0.8-0.8-0.4-0.5 0-1 0.3-0.6 0.1-0.3 0.3-0.3 0.6 0 0.6 0.7 0.5 1.1 1.8 0.4 0.2 0.8 0.3 0.4 0.3 0.3 0.5-0.2 0.2-2.9 0.3 0-0.3 0.3-0.2 0.2-0.1 0.1-0.1-0.1-0.6-0.2-0.8-0.3-0.7-0.3-0.3-0.2-0.1-0.4-0.5-0.2-0.1-0.3 0-0.6 0.2-0.3 0-1.4-0.6-0.5-0.1-0.3 0.2-0.2 0.3 0 0.3-0.2 0.4-0.9 0.6-0.5 0.5-0.4 0.5-0.1 0.3 0 0.4 0 0.4-0.2 0.1-0.1 0.2-0.3 0.6-0.1 0.1-0.2-0.2-0.1-0.4-0.2-0.4 0-0.3 0.5-0.6 0.2-0.4-0.1-0.1-0.3 0-0.2 0.1-0.2 0.2-0.3 0.3-0.1 0.5 0 0.8-0.2 0.4-0.5-0.3 0.2-0.6 0-0.6-0.2-0.6-0.3-0.4-0.3 0.6-0.1 1-0.1 1.8 0.1 0.3 0.4 0.8 0 0.3-0.2 0.4-0.6 0.4-0.1 0.2 0.1 1-0.1 0.3-0.4 0.2-0.2-0.1-0.7-0.4-0.2-0.2-0.3-0.7-0.3-1.5-0.3-0.4-0.5 0.3-0.3-0.3-0.5-1.1-0.3-0.4-0.3-0.2-0.3 0-1.1 0.4-0.3 0.1-0.4-0.2-1.8-0.8-1.4-1-0.4 0-0.9 0.3-1.6 0-0.8-0.2-0.4-0.5-0.7 0.4-0.2 0.1-0.2-0.1-0.4-0.3-0.2-0.1-0.5 0.1 0 0.3 0.4 0.4 0.4 0.1-0.6 0.3-3.5-0.3-1.7 0.6-1.8 0.2-0.5 0.2-0.5 0.3-0.3 0.5-0.2 0.5-0.3 0.4-1.5 0.4-0.2 0-0.3-0.2-0.1-0.2 0.1-0.2-0.1-0.3-0.7-1.2-0.8-0.8-1-0.3-1.1 0.1-0.6 0.2-0.2 0-0.3 0-0.2-0.1-1.1-1.4-0.5-0.3-0.3 0.3 0.1 1 0.8 1.1 1 1 0.5 0.9-0.6-0.3-1.3-0.8-2-0.8-0.6-0.4-0.4-0.6 0.3-0.2 0.1-0.4-0.1-0.3-0.1-0.2-0.5 0.4-0.4 0.1-0.5 0-1.1-0.3-0.3 0-1.1 0.5-0.2 0.2-0.2 0.1-0.1 0.2 0 0.2 0 0.5-0.1 0.3-0.2 0-0.5-0.5-1.8-1.1-0.1 0.6-0.3 0-0.3-0.4-0.1-0.5 0-1.2 0-0.7-0.2-0.2-0.8-0.2-2.2-1.4-1.8-0.5-1 0-0.5 0.4-0.1 0.3-0.1-0.2-0.3-0.4-0.3 0-0.2 0.2-0.2 0.2-0.2 0.2-0.3 0.2-0.4 0.2-0.3 0.1-0.5 0 0-0.2 0.2-0.4-0.3-0.4-0.1-0.4 0.5-0.4-0.9-0.5-0.8 0.5-0.7 0.7-0.8 0.4-0.3-0.1-0.8-0.3-0.5 0-0.2 0.1-0.4 0.3-0.2 0-0.1 0-0.3-0.2-0.2 0-0.3 0.1-1 0.7-0.4 0.1-0.4 0.1-2.2 0.9-3 0.1-1 0.3-0.6 0-0.4-0.2-0.5-0.4-1.4-0.6-1.3-0.9-0.3-0.2-0.3-0.4-0.1-0.9-0.2-0.5-0.4 0.3 0 0.2 0.1 0.4 0 0.3-0.6 0.2-0.2 0.2-0.3 0.5-0.2 0.2-0.3 0.2-0.3 0-0.2-0.3-0.1-0.4 0.1-0.2 0.3 0 0.2-0.2 0-0.7-0.3-0.3-0.4 0.2-0.4 0.9-0.4-0.1-1-0.5-0.2 0.4-0.3 1-0.3 0.2-0.9 0-1-0.3-3.4 0.3 0.5 0.6 0.1 0.3-0.3 0.2-0.4-0.1-0.2-0.2-0.2 0-0.4 0.3-0.2 0.5-0.6 3.1 0.1 0.7-0.1 0.3-0.2-0.1-0.1 0-0.2 0-0.3 0.2-1.9 0.7-0.3 0.3-0.1 0.4-0.1 0.5-0.3 0.8 0 0.4-0.6 0-1.1 0.5-0.6 0.1-0.5 0.2-0.4 0.5-0.3 0.5-0.4 0.4-0.8-0.4-0.7 0-0.7 0.3-0.7 0.5-2.2 2.4 0.2 0.6-0.2 0.3-0.4 0.1-0.3 0.4 0.2 0.3 0.1 0.7 0.1 0.3 0.3 0 0.3-0.2 0.2 0 0.1 0.3-0.1 0.6 0 0.3 0.2 0.1 0.6 0.1 0.2-0.1 0.2-0.2-0.1 0.4-0.3 0.3-0.7 0.6-0.3 0.2-0.3 0-1-0.6-0.3-0.1-0.4 0-0.4 0-0.5 0.2-0.2 0.2-0.4 1-1-1.4-0.2-0.5-0.1-0.3-0.4 0.2-0.3 0.5-0.1 0.8-0.5-0.2-0.5 0.1-0.5 0.2-0.3 1.1-0.2 0.1-0.2 0.1-0.1 0.1 0.1 0.3 0.1 0.2 0.2 0.1 0.2 0.1-0.5 0.8 0.1 0.6 0.4 0.4 1.2 0.8 0.3 0.3 0.2 0.2 0.1 0.4-0.1 0.4 0.1 0.3 0.4 0.2-0.3 0.2-0.3 0-0.7-0.2 0.1-0.1 0-0.4 0.1-0.1-0.4 0-0.5 0.3-0.3 0.2 0.2 0.1 0.2 0.2-0.2 0.3-0.5 0.6 0.3 0.6-0.2 0.5-0.4 0.4-0.5 0 0 0.2 0.1 0.4 0.1 0.1-0.3 0-0.1 0.2-0.1 0.4 0 0.9-0.1 0.2-0.3 0.4-0.1-0.1-1 0-0.2-0.2-0.6-0.9-0.3 0.1 0 0.2-0.1 0.2 0 0.1-0.7 0.4-0.1 0.1-0.2 0.3 0 0.2 0.4 0.5 0.5 0.3 1.3 0.1 0.4 0.5 0.4-0.1 0 0.2-0.2 0.3-0.2 0.1-0.3 0-0.2 0.2-0.1 0.2 0 1.2-0.2 0.4-0.3 0-1-0.1-0.2 0-0.1 0.4 0 0.7 0 0.3-0.1 0.3-0.1 0.5 0.3 0.6 0.4 0.5 0.3 0.2 1.1 0.1 0.4 0.2 1.8 1.4 0.4 0.4 0.3 0.6 0.4 1.5 0.3 0.6 0.4 0.6 0.4 0.5 0.5 0.4 0.5 0.3-0.1 0.2-0.2-0.1-0.1-0.1-0.3 0.2 1.6 1 0.5 0.5-0.3 0.4 0 0.4 0.3 0.3 0.3 0.2 0.1 0.1 0.2 0 0.2 0.1 0.1 0.2 0.1 0.3 0.1 0.2 0.5 0.5 0.7 0.3 0.7-0.1 0.6-0.3 0.4 0.2 0.1 0.3-0.2 0.2-0.4 0 0 0.2 0.3 0.1 0.2 0.2 0.1 0.2-0.2 0.3 0.2 0.3 0.1 0.3 0.3 0.2 0.2 0.1-0.3 0-0.6 0.1-0.2 0.2 0 0.8 0.1 0.4 0.2 0.3 0.7 0.8 0.1 0.2-0.1 0.2-0.7 0.5-0.3 0.2 0.2 0.1 0.2 0.2 0.1 0.1-0.1 0.1-0.1 0.3 1.8 0.4 0.4-0.2 0.6 0.8 0.2 0.1 0.2-0.2-0.1-0.5-0.3-0.4-0.3-0.2 0.1-0.3 0.3-0.8-0.3 0.1-0.8 0.5-0.2-0.4 0-0.3 0.1-0.2 0.3-0.1 0.6-0.1 0.5-0.2 0.4-0.3 0.4-0.5-0.6-1.5-0.2-2.2 0-0.6 0.2-1 0.3-1 0.1-1-0.1-1.1-0.3 0.1-0.1 0.1-0.1 0.2 0.1 0.2-0.3 0.3-0.4 0-0.4-0.1-0.3-0.3-0.2-0.4 0.1-0.2 0.2-0.2 0.1-0.4 0-0.5-0.4-0.6 0-0.5 0.6-1.6-0.4-0.4-0.2-0.5 0-0.5 0.3-0.6 0.8-0.7 0.9-0.6 1.6-0.5 0.5-0.4 0.3-0.7 0-0.6-0.2-0.6-0.2-0.5 1.1 0.7 0.5 0.1 0.3-0.6-0.1-0.2 0.1-0.2-0.2-0.4-1.2-0.9-0.4 0.3-0.4 0-0.2-0.3 0-0.7 0.1-0.2 0.1-0.3 0.2-0.2 0.2-0.1 0.3 0.1 0.2 0.2 0.1 0.2-0.2 0.3 0.3 0 0.2-0.2 0.2-0.3 0.1-0.3 0.1-0.1 0.1-0.1 0.1 0 0-0.2 0-0.1-0.2-0.3-0.1-0.2 0-0.2-0.4-0.6 0-0.3-0.1-0.8-0.2-0.7-0.3-0.6-0.3-0.6-0.3-0.5-0.2-0.8 0.1-0.6 0.6-0.4 0.4-0.4 0.3-0.2 0.2-0.1 0.7 0.1 0.5-0.1 1-0.4 0.5-0.1 0.5 0 0.3 0.3 0.8 0.7 0.4 0.5 0.2 0 0.3-0.1 0.2-0.5 0.2-0.1 0.2 0.1 1.6-0.7-0.1-0.9 0.6-0.7 0.8-0.3 0.4 0.5 1.2-0.6 0.4-0.4 0.4-0.5 0.3-0.6-0.3-0.6-0.3-0.6 0-0.4 0.1-0.5 1.1-1.4 0.3-0.6 0.1-0.7 0.1-0.8 0.1-0.6 0.7-2.3 0.3-0.3 0.4 0.2 0.4 0.4 0.5 0.3 0.5 0 0.5-0.1 0.5-0.4 0.3-0.6 0.2-0.6 0.3-0.7 0.8-1 0.5-0.2 0.3 0.4-0.4 0.2-0.6 0.8-0.4 0.3 0 0.2 0.4 0.1 0.2 0.1 0.3 0.3 0.2 0.2 0.2-0.4 0.1 0.1 0.2 0.2 0.2 0.1 0.3 0 0.5-0.2 0.3 0-0.1 0.2 0.4-0.1 0.6-0.6 0.3-0.2 0.2-0.1-0.2-0.4-0.5-0.6 0.7-0.3 0.2-0.1-0.1-0.2-0.4-0.3-0.1-0.1 0.1-0.4 0.4-0.2 0.8-0.2 0.5 0.1 0.3 0.3 0.1 0.2-0.3 0.1-0.2 0.3 0 0.5 0.1 0.4 0.4 0.2 0 0.1 0 0.2-0.1 0.1 0.4 0 0.4-0.3 0.3-0.5 0.3-0.5 0.1 0.1 0.2 0.3 0.1 0.2 0.1-0.5 0.2-0.1 0.3 0.1 0.3-0.2 0-0.1 0.1-0.1-0.6-0.3-0.1-0.3-0.1-0.4-0.1-0.4-0.1-0.2-0.1-0.1-0.2-0.2-0.2-0.5-0.2-0.8 0-0.7 0.3-0.3 0.3-0.1 0.6-0.8 0.3-0.2 0.2-0.1 0.3-0.1 1.4 0 0.4 0.2 0.3 0.5-0.3 0.1-0.2 0.1-0.1 0.2 0.3 0.2-0.4 0.4-0.5 0.1-0.4-0.2 0.1-0.5-0.1-0.2-0.1-0.5-0.2 0.1-0.1 0.2-0.1 0.2 0 0.3-0.1 0.1-0.2 0.1-0.2 0.2 0 0.4 0.2 0.3 0.9 1.6 1.3 1 0.2 0.3-0.2 0.4-0.6 0.6-0.3 0.5 0.9-0.2 0.4-0.1 0.4-0.2 0.5-0.4 0.2 0 0.2 0 0 0.2 0.1 0.2 0.2 0 0.2-0.2 0.2-0.8 0.2-0.3 0.4-0.2 0.3 0 0.6 0.2 0.2 0.1 0.1 0.2 0.1 0.2 0.2 0.1 0.1 0 0.4-0.3 0.1-0.1 0.8-0.1 0.4-0.1 0.3-0.7 0.4 0.1 0.7 0.3 0.6 0 0.2 0.1 0.2 0.4-0.4 0.2-0.2 0 0 0.2 2.3-0.2 0.1 0 0.3 0.2 0.1 0 0.2-0.1 0.1-0.1 0-0.1-0.1-0.1-0.1-0.2-0.2-0.3-0.1-0.3 0.1-0.1 0.5 0.1 0.9 0.3 1.6 0.2 0.4-0.1-0.1-0.7 0.4 0.1 0.4 0.2 0.3-0.1-0.1-0.6 0.2 0.1 0.4 0.1 0-0.2-0.1-0.1-0.3-0.2 0.4-0.2 0.5 0.2 1.7 0.9 0.4 0.2 7.9 0.3 0.8 0.4 2.7 2 0.4 0 0-0.7 2.6 0.9 0.6 0 0.5 0 0.5-0.3 0.4-0.5 0.5-0.3 0.5 0 0.5 0.2 0.4 0.3 0.2 0.1 0.1 0.2 0.2 0.2 0.2 0.1 0.3-0.1 0.4-0.5 0.7-0.2 1.1-0.8 0.5-0.2 0.5 0 0.5 0.2 0.4 0.4 0.8 0.9 2.4 1.3 3.2 0.3-0.7 0.6-0.2 0.3 0.4 0.2 0.3-0.2 0.3-0.4 0.4-0.2 0.9-0.1 0.5-0.2 0.3-0.2-0.4-0.2-0.4 0-0.5 0-0.5 0.2 0-0.2 1.2-0.5 1.4 0.4 2.3 1.9 1 1 0.5 0.4 2 0.4 0.7 0 0.4-0.5-0.3 0-0.2-0.1-0.2-0.1-0.2-0.3-0.2 0.2-0.2 0.1-0.2 0-0.2 0 0-0.3 0.9-0.1 2.6 0.5 0.6-0.6-0.3-0.2 0.7-0.2 0.7 0.1 0.6 0.6 0.5 0.8-0.2 0 0.5 0.6 0.8 0.3 0.7-0.3 0.1-0.8-0.2-0.3-0.7-0.3-0.3-0.3-0.1-0.6 0.2-0.5 0.3-0.4 0.4-0.2 0.3-0.2 1.2-0.1 0.5 0.1 1 0.8 0.4 0.2 0.3 0.1 0.3 0 0.4 0 0.5-0.2 0.8-0.5 0.4 0 1.4 0.6 2 0.4 0.5-0.1 1-0.6 0.9-0.7 0.8-0.8 0.6-1 0.1-0.5z m-405 12.5l0.1-0.7 0.7-0.2 1.1-0.7 0.6-0.9 0.6-0.4 0.9 0 1.2-0.4 0.5-0.8 1 0.1 0.3-0.3 0.3 0 0.2-0.2 0.1-0.1 0.3-0.1 0.3-0.5 0.3-0.7 0.1-0.5 0.1-0.3 0.1-0.2 0.2-0.1 0.3-0.7 0.2-1.1 0-0.2 0-0.1 0-0.3 0-0.1 0.2 0 0-0.8-0.2-0.2 0-0.1-0.3-0.3 0.1-1.6 0.7 0.1 0.3-0.8 2.8-2.7 0.1-0.6 0.5-0.8 0.6-0.4 0.5-1.2-1.6 0.1-0.6 0.5-0.4-0.5-0.6 0.3-0.4 0.5-1.1 0-0.3 0.5-0.1 0.7-1.4 1-0.4-0.2-0.2 0.2-0.1 0.3 0.4 0.2 0.3-0.1 0 0.4-0.1 0.3 0.2 0.4 0.4 0.2 0.2 0.5 0 0.4-0.5 0.8-0.4 0.2-0.6 0 0 0.1-0.9 0.4-0.3 0-0.3 0.1-1.1-0.3-1.6 0-1.4 0-1.2-0.4-1.2-1.2-0.6-1.2-0.6-0.6-0.2-0.5 0-0.2 0-0.1 0-0.1 0.2-0.9 0.2-1.4 0.5-1.6 0.1-0.5-0.1-0.3-0.1-0.3-0.5-0.3-0.6 0-1 0-0.6-0.2-0.4 0-0.5-0.2-0.4-0.2-0.6 0-0.3-0.2-0.3-0.1-0.2 0-0.1 0.1-0.5 0.1-0.4 0-0.1 0.3 0 0.3 0.1 0.3 0.4 0.2 0.6 0.3 1.4 0.6 1.5 1.3 0.9 0.6 0.5 0.3 0 0.1 0 0.1-0.1 0.3-1.4 0.7-0.1 0.1 0 0.1-0.1 0.1-0.1 0.1-0.3 0.3-0.5 0.3-0.4 0.2-0.5 0.3-0.6 0.1-0.5-0.1-0.5-0.3-0.4-0.4-1-0.6 0-0.2 0.1-0.2 0-0.1-0.1-0.1-0.1 0-0.2-0.1-0.1 0.1-0.1 0.2 0 0.2 0.1 0.3 0 0.9-0.5 1.5-0.2 0.3-0.1 0.5 0 0.1-0.2 0.6-0.1-0.2 0-0.3-0.2-1.5-0.3-1.2-0.3-1.2-0.4-1-0.4-0.7-0.6-0.6-0.4-0.4-0.4-0.1-0.4 0.1-0.3 0.2-0.5 0.5-0.4 0.4-0.3 0.2-0.5 0.4-0.6 0.5-0.4 0.5-0.3 0.1-0.6 0.1-0.5 0.1-0.4 0.2-0.5 0.6-0.2 0.3-0.1 0.1-0.2 0.7-0.2 1.4-0.1 0.8 0.1 0.9 0.1 0.5 0.2 0.3 0.2 0.1 0.2 0.1 0.2 0.2 0.7 0.3-0.1 0.1 0.4 0.4 0.2 0.3 0.6 0.4 0.7 0.4 0.4 0.1 0.4 0 0.1-0.1 0.2-0.3 0.3-0.3 0.5-0.1 1 0 0.5-0.1 0.3-0.2 0.4-0.3 0.3-0.2 0.4 0 0.7 0.5 0.8 0.7 0.5 0.5 0.7 0.7 0.8 0.4 1.2 0.7 0.4 0.1 0.2-0.1 0.1-0.2 0.3-0.6 0.2-0.2 0.2 0 0.1 0.2 0.1 0.1 0.1-0.4 0.4 0.2 0.2-0.1 0.2-0.3 0.2-0.1 0.5-1.2 0.4 0.1 0 0.3 0.1 0.5 0.2 0.3 0.2 0.7 1.4 2.7 0.4 1 0 0.1-0.1 0.5-0.1 0.4-0.2 0.4-0.3 0.3-1 1 0.7 1 1.8-0.1z m-235.8 33.6l-0.2 0.7-0.1 0.8 0.2 0.7 0.4 0.3 0.5-0.2 0.5-0.4 0.2-0.7-0.2-1.2 0.1-0.2 0.2-0.1 0.1-0.3 0.2-0.6-0.1-0.4-0.1-0.1-0.1 0.2-0.2 0-0.4 0-0.2 0-0.1 0-0.2 0.1-0.3 0.2-0.1 0.5-0.1 0.7z m-2.8 6.8l0.6-0.4 0.4-1-0.3 0.1-0.7 0.6-0.3 0-0.3-0.2-0.2-0.2-0.2-0.1-0.5-0.2-0.3-0.6-0.1-0.7 0-0.8-0.3 0.1-0.3-0.2-0.2-0.4-0.1-0.5 0.1-0.5 0.3-0.8 0.1-0.4 0.3-0.8 1.3-0.7 0.1-0.6-1.1 0.3-0.3 0.2-0.2 0.2-1.3 2.9 0 0.6 0.4 0.8 0.9 0.9 0.2 0.4 0.1 0.5 0.1 0.4 0.1 0.3 0.3 0.3 0.7 0.4 0.7 0.1z m13.7-1.7l-0.3-0.5-0.2-0.3 0-0.3 0-0.7-0.2-0.4-0.1 0-0.1-0.2-0.1-0.2-0.1 0-0.1 0.2-0.2 0.2-0.4 0.2-0.4-0.1-0.3-0.5-0.2-0.4-0.2 0 0 0.5 0.3 0.6 1 0.6 0.2 0.4-0.1 0.3 0 0.2 0.3 0.1 0 0.2-0.2 0.3 0.1 0.2 0.3 0 0.3-0.2 0.3-0.1 0.5 0.1-0.1-0.2z m43.2-18l-0.1-0.6-0.2-0.5-0.3-0.9-0.4-0.5-0.4-0.2-0.8 0-0.1 0.1 0.1 0.2-0.1 0.3-0.3 0.2-0.3 0.3-0.4 0.4 0.2 0.7 0.6 0.8 0.9 0.7 1.1 0.4 0.6-0.2 0-0.7-0.1-0.5z m-63.7-27l-0.3-0.9-0.3-0.4-0.4-0.4-0.9-0.6-0.7 0 0 0.6 1 2.9 0.4 0.8 0.5 0.4 0.4-0.2 0.4-1.4-0.1-0.8z" id="KZ" name="Kazakhstan">
  </path>
 </g>
 <g id="points">
  <circle class="41.327150382246806|48.52055466847905" cx="90.9" cy="502" id="0">
  </circle>
  <circle class="47.26710822678949|68.94331330725664" cx="545.5" cy="317" id="1">
  </circle>
  <circle class="54.69205553246783|85.28152021827874" cx="909.1" cy="53.8" id="2">
  </circle>
 </g>
 <g id="label_points">
  <circle class="Kazakhstan" cx="515.6" cy="261.2" id="KZ">
  </circle>
 </g>
</svg>