<?xml version="1.0" encoding="UTF-8"?>
<svg version="1.1" xmlns="http://www.w3.org/2000/svg" width="256" height="256">
<path d="M0 0 C0.8737326 -0.00511093 1.74746521 -0.01022186 2.64767456 -0.01548767 C5.5280446 -0.02935839 8.40817481 -0.02842938 11.28857422 -0.02612305 C13.2920643 -0.03001018 15.29555356 -0.03434489 17.29904175 -0.03910828 C21.49365922 -0.04656419 25.68819249 -0.04628289 29.8828125 -0.04101562 C35.26444148 -0.03520921 40.64572763 -0.05218332 46.02729988 -0.0753603 C50.16220115 -0.09006952 54.29701919 -0.0909734 58.43194199 -0.08785057 C60.41672319 -0.08836478 62.40150893 -0.09362121 64.3862648 -0.10366249 C67.15617672 -0.11596074 69.92541191 -0.10927617 72.6953125 -0.09765625 C73.51823792 -0.10529999 74.34116333 -0.11294373 75.18902588 -0.12081909 C80.76998972 -0.06891233 80.76998972 -0.06891233 82.95615959 1.60664082 C84.21826172 3.2746582 84.21826172 3.2746582 84.15576172 6.3371582 C83.21826172 9.2746582 83.21826172 9.2746582 81.66976929 10.44129944 C78.1548833 11.63614015 74.72641704 11.55804978 71.05664062 11.54589844 C70.23664078 11.55112518 69.41664093 11.55635193 68.5717926 11.56173706 C66.79357438 11.57196763 65.01532629 11.57775582 63.23707962 11.57961845 C60.42055555 11.58328353 57.60438315 11.60001431 54.78793335 11.62037659 C46.78105207 11.67577372 38.77411896 11.70646331 30.76708984 11.73095703 C25.86701415 11.74684949 20.96718798 11.77708671 16.06724167 11.81572151 C14.20219958 11.82735709 12.33711284 11.83330174 10.47203445 11.83340263 C7.86064932 11.83359512 5.24995022 11.85189328 2.63867188 11.87402344 C1.87171494 11.86944626 1.104758 11.86486908 0.31455994 11.8601532 C-4.4520111 11.92423143 -7.7383129 12.73732781 -11.78173828 15.2746582 C-15.42122391 20.04363937 -15.89940468 24.84047685 -15.93995667 30.69734192 C-15.94973069 31.77058873 -15.95950472 32.84383554 -15.96957493 33.94960499 C-15.97534518 35.12139647 -15.98111544 36.29318796 -15.98706055 37.50048828 C-15.99709327 38.75993854 -16.00712599 40.01938879 -16.01746273 41.3170042 C-16.04363357 44.71663883 -16.06565824 48.1162495 -16.08565521 51.51592255 C-16.10531553 54.70876054 -16.13020692 57.90155597 -16.15466309 61.09436035 C-16.22309863 70.42525598 -16.28315917 79.75621152 -16.34423828 89.0871582 C-16.48861328 109.9390332 -16.63298828 130.7909082 -16.78173828 152.2746582 C61.09826172 152.2746582 138.97826172 152.2746582 219.21826172 152.2746582 C219.09451172 131.4640332 218.97076172 110.6534082 218.84326172 89.2121582 C218.8092627 82.64559326 218.77526367 76.07902832 218.74023438 69.31347656 C218.70031735 63.41784509 218.70031735 63.41784509 218.6578064 57.52223206 C218.64014182 54.89999488 218.62559828 52.2779164 218.61557007 49.65565491 C218.60014986 45.67951782 218.5691567 41.70357833 218.53710938 37.72753906 C218.53385116 35.98064616 218.53385116 35.98064616 218.53052711 34.19846249 C218.51003909 24.06136262 218.51003909 24.06136262 213.78076172 15.3996582 C209.47678808 11.83050933 205.47360264 12.11900148 200.13842773 12.10107422 C199.31536133 12.09438721 198.49229492 12.0877002 197.64428711 12.08081055 C195.85676617 12.06676162 194.06922731 12.05486706 192.28167915 12.04486275 C189.45325831 12.02845476 186.62497047 12.00521759 183.7966156 11.97996521 C175.75485861 11.90917898 167.71304781 11.84903288 159.67114258 11.79785156 C154.75281089 11.76607083 149.83463296 11.72479946 144.9164257 11.67765617 C143.04135844 11.66163295 141.16625577 11.64931286 139.2911396 11.64074898 C136.66976416 11.62860298 134.04875072 11.60445678 131.42749023 11.57763672 C130.6517717 11.57704758 129.87605316 11.57645844 129.076828 11.57585144 C122.14722762 11.48184353 122.14722762 11.48184353 119.21826172 9.2746582 C118.28076172 6.3371582 118.28076172 6.3371582 118.21826172 3.2746582 C119.18464661 1.60850525 119.18464661 1.60850525 121.21826172 0.2746582 C124.11424874 -0.02684913 126.79604202 -0.14533636 129.69360352 -0.12939453 C130.5590126 -0.13625778 131.42442169 -0.14312103 132.3160553 -0.15019226 C135.183363 -0.16852507 138.05012658 -0.16461176 140.91748047 -0.15893555 C142.91185179 -0.16349602 144.90622154 -0.16880119 146.90058899 -0.17481995 C151.08621592 -0.1837651 155.27165223 -0.18131404 159.45727539 -0.17138672 C164.80943973 -0.15992728 170.16094135 -0.18005496 175.51301861 -0.20930386 C179.63528092 -0.22769856 183.75738565 -0.22736632 187.87967873 -0.22166634 C189.85195657 -0.22151335 191.82424525 -0.22753888 193.79648399 -0.23995781 C196.56338655 -0.25491813 199.3290812 -0.24415194 202.09594727 -0.22705078 C202.90403839 -0.23671875 203.71212952 -0.24638672 204.54470825 -0.25634766 C211.3840905 -0.16830435 216.55334173 1.91007046 221.67919922 6.45825195 C222.31083984 7.20204102 222.94248047 7.94583008 223.59326172 8.7121582 C224.24037109 9.45336914 224.88748047 10.19458008 225.55419922 10.95825195 C228.72178103 15.36758532 229.46972765 19.12060342 229.49914551 24.5032196 C229.5105658 25.75776443 229.52198608 27.01230927 229.53375244 28.30487061 C229.53624286 29.68762167 229.53849311 31.07037319 229.54052734 32.453125 C229.54979043 33.91545611 229.55984065 35.37778241 229.57061768 36.84010315 C229.596808 40.80729237 229.60974458 44.77441397 229.61863899 48.74167609 C229.6245107 51.22344663 229.6327223 53.70519891 229.64164734 56.18696022 C229.66898405 63.96107064 229.68832294 71.73513906 229.69605112 79.50929421 C229.70500526 88.46614018 229.74007238 97.42237461 229.79805231 106.3790347 C229.84137394 113.31342958 229.86146438 120.24765297 229.86413336 127.18218166 C229.86622351 131.31862579 229.87790894 135.45449456 229.91377258 139.59079552 C229.94688769 143.48577821 229.9509733 147.3797579 229.93349457 151.27483177 C229.93196179 152.69777628 229.94053415 154.12077642 229.96041107 155.54358292 C230.0912284 165.49799356 228.62442615 172.52902773 221.67392731 179.91596508 C214.93564711 185.94643701 207.14369578 186.43283888 198.46875 186.38818359 C197.71684891 186.38832962 196.96494781 186.38847565 196.19026184 186.3886261 C193.72300254 186.38793349 191.25582021 186.38017178 188.78857422 186.37231445 C187.07079103 186.37044796 185.3530073 186.36902515 183.63522339 186.36802673 C179.12746699 186.3642198 174.61974312 186.35440516 170.11199951 186.34332275 C165.50679972 186.33306935 160.90159465 186.32852071 156.29638672 186.32348633 C147.2703285 186.31278118 138.24430291 186.29519923 129.21826172 186.2746582 C129.21826172 191.5546582 129.21826172 196.8346582 129.21826172 202.2746582 C130.53826172 202.2334082 131.85826172 202.1921582 133.21826172 202.1496582 C141.26144479 202.16230472 147.59385547 204.10330273 153.71826172 209.4621582 C154.54326172 210.3902832 155.36826172 211.3184082 156.21826172 212.2746582 C156.92402344 213.03649414 156.92402344 213.03649414 157.64404297 213.8137207 C162.71730654 220.30178172 162.06952201 228.44306356 161.21826172 236.2746582 C158.73431166 238.75860826 158.01057349 238.52559223 154.58740234 238.52862549 C153.61150146 238.53426514 152.63560059 238.53990479 151.63012695 238.54571533 C150.55577393 238.54166687 149.4814209 238.53761841 148.37451172 238.53344727 C147.24601807 238.5369519 146.11752441 238.54045654 144.95483398 238.54406738 C141.20924808 238.55289951 137.46384969 238.54703024 133.71826172 238.5402832 C131.12516239 238.54162942 128.53206331 238.5435696 125.93896484 238.54608154 C120.4981829 238.54903482 115.05747197 238.5449182 109.61669922 238.53540039 C103.32166445 238.52451552 97.02675923 238.52804099 90.7317276 238.5390532 C84.68221746 238.54921334 78.63277083 238.54814993 72.58325195 238.54228973 C70.00594057 238.54095171 67.42862591 238.54260626 64.85131836 238.54724884 C61.2547926 238.55230496 57.65851864 238.54461654 54.06201172 238.53344727 C52.45048218 238.53951996 52.45048218 238.53951996 50.80639648 238.54571533 C49.83049561 238.54007568 48.85459473 238.53443604 47.84912109 238.52862549 C46.99813843 238.52787144 46.14715576 238.52711739 45.27038574 238.52634048 C43.21826172 238.2746582 43.21826172 238.2746582 41.21826172 236.2746582 C40.14760354 227.46231779 40.18329156 219.71111643 45.50341797 212.26293945 C50.78405363 206.14028899 56.14473324 203.20621918 64.21826172 202.2746582 C67.22401651 202.2007462 70.21060568 202.22908766 73.21826172 202.2746582 C73.21826172 196.9946582 73.21826172 191.7146582 73.21826172 186.2746582 C69.78226563 186.29036865 69.78226563 186.29036865 66.27685547 186.30639648 C58.68928897 186.33960856 51.10171918 186.36165673 43.51409912 186.37828255 C38.91593566 186.38869801 34.31784699 186.40281619 29.71972656 186.42553711 C25.27824167 186.44734548 20.83682851 186.45924365 16.39529419 186.46441269 C14.70491406 186.46809413 13.01453764 186.47528294 11.32418823 186.48611832 C8.94764878 186.50073967 6.57140176 186.50263174 4.19482422 186.50170898 C3.50357956 186.50889954 2.8123349 186.51609009 2.10014343 186.52349854 C-6.2129395 186.48881066 -12.96937404 184.61047692 -19.28173828 179.0871582 C-26.58731452 170.86838494 -27.51076666 164.679572 -27.4128418 153.72387695 C-27.4179868 152.25785457 -27.42527245 150.79183839 -27.43452454 149.32583618 C-27.45297326 145.36285427 -27.44014187 141.40054877 -27.42043424 137.43759537 C-27.40399205 133.28000413 -27.41286835 129.12245387 -27.41795349 124.96484375 C-27.42246825 117.98434708 -27.40664309 111.00411891 -27.37866211 104.02368164 C-27.34661289 95.96648388 -27.34662791 87.90977024 -27.36387688 79.85253811 C-27.37976999 72.08478699 -27.37299055 64.31721245 -27.35593987 56.54946899 C-27.34908784 53.25138618 -27.35008273 49.95344571 -27.35748482 46.65536499 C-27.36517617 42.76782618 -27.35292959 38.88083476 -27.32563591 34.99338913 C-27.31878069 33.57125854 -27.31862326 32.14907653 -27.32585144 30.72694778 C-27.36744259 21.47411948 -26.93782837 14.95862378 -20.59814453 7.8137207 C-19.48246094 6.86625977 -19.48246094 6.86625977 -18.34423828 5.8996582 C-17.60302734 5.25254883 -16.86181641 4.60543945 -16.09814453 3.9387207 C-10.85480006 0.17200107 -6.2398999 -0.01887809 0 0 Z M-15.78173828 163.2746582 C-13.5780315 169.88577853 -13.05018588 170.58674489 -7.78173828 174.2746582 C-3.70712518 175.58071683 0.38706607 175.41968591 4.62458801 175.4151001 C5.48061275 175.41807122 6.33663748 175.42104234 7.21860236 175.4241035 C10.09195245 175.43278705 12.96526087 175.43429846 15.83862305 175.43579102 C17.89679554 175.4404194 19.95496718 175.44544409 22.01313782 175.45083618 C27.60823352 175.4639595 33.20331722 175.47040492 38.79842591 175.47484684 C42.29342641 175.47777745 45.78842362 175.48188221 49.28342247 175.48635101 C60.21683004 175.50002526 71.15023011 175.50969249 82.08364564 175.5135529 C94.7079059 175.51803475 107.33205795 175.53558889 119.9562853 175.5645535 C129.71266013 175.58616188 139.4690045 175.59625672 149.22540301 175.59759402 C155.0534005 175.59864258 160.88129626 175.60456132 166.70926857 175.62241364 C172.19135932 175.63887983 177.67327169 175.64105681 183.15537834 175.63227463 C185.16653038 175.6315035 187.17769195 175.63585691 189.18881989 175.64573288 C191.93642073 175.65843331 194.68338799 175.65258588 197.4309845 175.64215088 C198.22496527 175.65020728 199.01894604 175.65826369 199.83698684 175.66656423 C206.01490479 175.61176959 210.64103776 174.3093087 215.59326172 170.3996582 C217.64705612 168.0367785 217.64705612 168.0367785 218.21826172 163.2746582 C140.99826172 163.2746582 63.77826172 163.2746582 -15.78173828 163.2746582 Z M84.21826172 186.2746582 C84.21826172 191.5546582 84.21826172 196.8346582 84.21826172 202.2746582 C89.01916928 202.52372827 89.01916928 202.52372827 93.82104492 202.75268555 C97.42936006 202.96627538 99.14879629 203.22834792 102.21826172 205.2746582 C102.40576172 208.8996582 102.40576172 208.8996582 102.21826172 212.2746582 C101.10378662 212.28924072 99.98931152 212.30382324 98.84106445 212.31884766 C94.68287012 212.377079 90.5252033 212.45430934 86.36743164 212.53710938 C84.57227172 212.57024233 82.77701055 212.59831007 80.98168945 212.62109375 C78.3921416 212.65485485 75.80351201 212.70717945 73.21435547 212.76293945 C72.02174355 212.77252434 72.02174355 212.77252434 70.80503845 212.78230286 C64.57565224 212.94449143 59.95050933 214.26142312 54.84326172 218.0246582 C52.59367248 220.77212688 52.59367248 220.77212688 52.21826172 227.2746582 C84.55826172 227.2746582 116.89826172 227.2746582 150.21826172 227.2746582 C149.70968971 220.65693495 149.70968971 220.65693495 145.90576172 216.8996582 C145.31150391 216.41754883 144.71724609 215.93543945 144.10498047 215.4387207 C140.40879948 213.15826121 136.62600024 213.11064886 132.35888672 212.95825195 C131.24384766 212.91635742 130.12880859 212.87446289 128.97998047 212.83129883 C127.82111328 212.79198242 126.66224609 212.75266602 125.46826172 212.7121582 C124.29392578 212.66897461 123.11958984 212.62579102 121.90966797 212.58129883 C119.01264721 212.47531026 116.11554237 212.37324182 113.21826172 212.2746582 C112.90576172 208.9621582 112.90576172 208.9621582 113.21826172 205.2746582 C115.69326172 203.7896582 115.69326172 203.7896582 118.21826172 202.2746582 C118.21826172 196.9946582 118.21826172 191.7146582 118.21826172 186.2746582 C106.99826172 186.2746582 95.77826172 186.2746582 84.21826172 186.2746582 Z " fill="#FBFBFB" transform="translate(26.78173828125,8.725341796875)"/>
<path d="M0 0 C2.30737305 1.24658203 2.30737305 1.24658203 4.51171875 3.0078125 C5.34219727 3.6577417 6.17267578 4.3076709 7.02832031 4.97729492 C8.34461426 6.04040894 8.34461426 6.04040894 9.6875 7.125 C11.57047517 8.60431606 13.45461365 10.08215243 15.33984375 11.55859375 C16.28714355 12.30608887 17.23444336 13.05358398 18.21044922 13.82373047 C21.56088853 16.43757749 24.96560715 18.96646226 28.40039062 21.46801758 C29.96868923 22.61572405 31.52609423 23.7784641 33.07226562 24.95581055 C36.91783963 27.86888984 40.68683943 30.43257433 44.96484375 32.671875 C49.88208785 35.43916386 54.24941616 37.91487045 57 43 C59.0409418 53.17156787 58.04743396 63.75220945 57 74 C57.77859375 74.2784375 58.5571875 74.556875 59.359375 74.84375 C63.19632142 76.52383305 65.15243025 79.30486051 67 83 C67.23542471 85.99444406 67.18517593 88.99729849 67.1875 92 C67.19974609 92.83273438 67.21199219 93.66546875 67.22460938 94.5234375 C67.22654297 95.32007813 67.22847656 96.11671875 67.23046875 96.9375 C67.23457764 97.66839844 67.23868652 98.39929688 67.24291992 99.15234375 C67 101 67 101 65 103 C60.70645058 103.48609303 56.38041918 103.37039913 52.0625 103.375 C50.25362305 103.41173828 50.25362305 103.41173828 48.40820312 103.44921875 C46.67666992 103.45501953 46.67666992 103.45501953 44.91015625 103.4609375 C43.31892944 103.47326416 43.31892944 103.47326416 41.69555664 103.48583984 C39 103 39 103 37.15551758 101.15795898 C34.48580236 96.17219671 35.28702041 89.15590189 36.50390625 83.76953125 C38.08891102 79.6666332 40.68076359 76.80858466 44 74 C44.66 74 45.32 74 46 74 C46 68.72 46 63.44 46 58 C36.36581683 63.3586161 36.36581683 63.3586161 30.1328125 71.7109375 C30.16894247 73.38840043 30.21946012 75.06562218 30.28515625 76.7421875 C30 79 30 79 28.43359375 80.7578125 C25.70397259 82.66993291 22.87986457 84.32062567 20 86 C18.43533804 87.01351303 16.8758381 88.03501968 15.3203125 89.0625 C13.63081114 90.16758882 11.94070159 91.27174832 10.25 92.375 C9.43418457 92.9117334 8.61836914 93.4484668 7.77783203 94.00146484 C-0.44849438 99.24618962 -0.44849438 99.24618962 -5 99 C-8.08876308 97.66874311 -10.82187646 95.91026297 -13.625 94.0625 C-14.41318115 93.56121582 -15.2013623 93.05993164 -16.01342773 92.54345703 C-18.35469548 91.04716348 -20.6790242 89.52753183 -23 88 C-23.65597168 87.57283691 -24.31194336 87.14567383 -24.98779297 86.70556641 C-34.47276442 80.52723558 -34.47276442 80.52723558 -36 79 C-36.01163971 77.46355872 -36.020217 75.92709384 -36.02734375 74.390625 C-36.43588591 69.96671956 -37.36013529 68.04346713 -40.75390625 65.171875 C-42.33482364 64.00102042 -43.93879291 62.86075449 -45.5625 61.75 C-46.74295898 60.89148438 -46.74295898 60.89148438 -47.94726562 60.015625 C-51.04993179 57.76472127 -54.16117868 55.54575995 -57.37451172 53.45507812 C-62.809046 49.77056689 -62.809046 49.77056689 -63.7734375 45.87890625 C-62.79126374 42.22303725 -61.63535164 41.21108389 -58.625 38.9375 C-57.614375 38.1640625 -56.60375 37.390625 -55.5625 36.59375 C-54.37746114 35.72579637 -53.18980491 34.86140865 -52 34 C-51.35675781 33.53207031 -50.71351562 33.06414062 -50.05078125 32.58203125 C-47.15575707 30.48107085 -44.2553935 28.38793536 -41.3449707 26.30834961 C-34.17366364 21.17410087 -27.16183789 15.8417212 -20.16845703 10.46850586 C-18.52695953 9.20856364 -16.88195132 7.95317767 -15.23291016 6.703125 C-13.82272326 5.62752214 -12.42463915 4.53568882 -11.04443359 3.421875 C-7.15574484 0.38846345 -4.89024473 -0.50035023 0 0 Z M-7.46484375 14.5703125 C-8.52771606 15.41057983 -8.52771606 15.41057983 -9.61206055 16.26782227 C-10.37945557 16.88069092 -11.14685059 17.49355957 -11.9375 18.125 C-18.60660967 23.38530517 -25.34021457 28.53606375 -32.1875 33.5625 C-32.96407959 34.13307129 -33.74065918 34.70364258 -34.54077148 35.29150391 C-35.28399658 35.83597168 -36.02722168 36.38043945 -36.79296875 36.94140625 C-37.49856934 37.45848145 -38.20416992 37.97555664 -38.93115234 38.50830078 C-40.31016532 39.50260917 -41.70131777 40.48029444 -43.10400391 41.44091797 C-44.76741476 42.58281802 -46.38870941 43.78566312 -48 45 C-48 45.66 -48 46.32 -48 47 C-46.09587525 48.6354808 -44.20199329 50.13794613 -42.1875 51.625 C-41.64029297 52.04523438 -41.09308594 52.46546875 -40.52929688 52.8984375 C-37.14347315 55.46755795 -37.14347315 55.46755795 -33 56 C-31.77309206 54.46249319 -31.77309206 54.46249319 -30.75 52.4375 C-26.59271523 45.46757152 -21.78775308 40.40529918 -14.00390625 37.66015625 C-5.33750455 35.75557642 4.62713657 35.67954033 12.75 39.53515625 C19.00209836 43.60553279 24.30244339 48.98635281 27 56 C30.9644789 55.38644969 33.5524654 53.40143734 36.75 51.0625 C37.73484375 50.35222656 38.7196875 49.64195313 39.734375 48.91015625 C40.48203125 48.27980469 41.2296875 47.64945313 42 47 C42 46.34 42 45.68 42 45 C40.53825674 43.65128674 40.53825674 43.65128674 38.58203125 42.3046875 C37.83187744 41.76110596 37.08172363 41.21752441 36.30883789 40.6574707 C35.48504639 40.06925537 34.66125488 39.48104004 33.8125 38.875 C32.07694708 37.61750955 30.34261875 36.35832761 28.609375 35.09765625 C27.69607422 34.4339502 26.78277344 33.77024414 25.84179688 33.08642578 C21.03481589 29.55717669 16.29867888 25.93591965 11.5625 22.3125 C10.66958252 21.62978027 9.77666504 20.94706055 8.85668945 20.24365234 C7.26401823 19.02553821 5.67182124 17.80680351 4.08032227 16.5871582 C3.39381592 16.063396 2.70730957 15.53963379 2 15 C1.29222412 14.43692139 0.58444824 13.87384277 -0.14477539 13.29370117 C-3.40688296 11.01894028 -4.63741175 12.31173245 -7.46484375 14.5703125 Z M-19.8125 53.75 C-22.29386002 57.43659202 -23.90048696 60.70704836 -25 65 C-25.1753125 65.67417969 -25.350625 66.34835938 -25.53125 67.04296875 C-25.85897994 69.39625178 -25.83769893 70.76613618 -25 73 C-22.02050209 75.9166393 -18.56679879 77.87509859 -15 80 C-13.5459375 81.0209375 -13.5459375 81.0209375 -12.0625 82.0625 C-11.11375 82.7225 -10.165 83.3825 -9.1875 84.0625 C-7.87845703 84.97708984 -7.87845703 84.97708984 -6.54296875 85.91015625 C-4.09546142 87.2456119 -4.09546142 87.2456119 -1.72265625 86.53125 C2.20740002 84.32094576 5.98498375 81.91682351 9.75 79.4375 C10.52988281 78.93025391 11.30976562 78.42300781 12.11328125 77.90039062 C15.73541243 75.67854087 15.73541243 75.67854087 19 73 C19.61094989 66.27955118 18.36527534 60.88431186 15 55 C10.94815056 50.33365207 6.38436919 47.40145621 0.16796875 46.6640625 C-8.37718277 46.55206838 -13.64834988 47.72283099 -19.8125 53.75 Z M47 86 C46.83322718 89.58343976 46.83322718 89.58343976 47 93 C49.97 93 52.94 93 56 93 C56.020625 91.700625 56.04125 90.40125 56.0625 89.0625 C56.07410156 88.33160156 56.08570313 87.60070312 56.09765625 86.84765625 C56.20561184 84.98267859 56.20561184 84.98267859 55 84 C50.50114231 83.53277305 50.50114231 83.53277305 47 86 Z " fill="#FBFBFB" transform="translate(83,34)"/>
<path d="M0 0 C3.5 0.5625 3.5 0.5625 5.0637207 2.08276367 C7.02980237 5.47720383 7.98295327 9.0379003 8.98046875 12.80078125 C9.30704216 13.99926949 9.30704216 13.99926949 9.64021301 15.2219696 C10.09746259 16.90940911 10.55022303 18.59807064 10.9987793 20.2878418 C11.6832606 22.85907481 12.38645369 25.42465624 13.09179688 27.99023438 C13.53499217 29.63511047 13.97708561 31.28028391 14.41796875 32.92578125 C14.62729538 33.68643387 14.83662201 34.44708649 15.05229187 35.23078918 C16.23930628 39.76222461 16.86049276 43.83574885 16.5 48.5625 C14.8125 50.625 14.8125 50.625 12.5 51.5625 C9.9375 51.1875 9.9375 51.1875 7.5 49.5625 C6.17624101 47.27218683 5.38551742 45.07923371 4.5 42.5625 C1.53 42.5625 -1.44 42.5625 -4.5 42.5625 C-4.891875 43.67625 -5.28375 44.79 -5.6875 45.9375 C-6.87697193 48.69797259 -7.34441432 49.45877621 -9.9375 51.1875 C-12.5 51.5625 -12.5 51.5625 -14.8125 50.625 C-17.29829541 47.58680561 -16.73440995 45.4379159 -16.5 41.5625 C-15.96314032 38.72052835 -15.2092069 35.96035542 -14.41796875 33.1796875 C-14.20312332 32.40239288 -13.98827789 31.62509827 -13.766922 30.82424927 C-13.31310936 29.19101609 -12.85483865 27.55901571 -12.39233398 25.92822266 C-11.6885257 23.4411246 -11.00250285 20.94960134 -10.31835938 18.45703125 C-9.87344828 16.86428897 -9.42751909 15.27183066 -8.98046875 13.6796875 C-8.67558784 12.57015213 -8.67558784 12.57015213 -8.36454773 11.4382019 C-5.3319773 0.85692492 -5.3319773 0.85692492 0 0 Z M-0.5 24.5625 C-0.83 26.5425 -1.16 28.5225 -1.5 30.5625 C-0.51 30.5625 0.48 30.5625 1.5 30.5625 C1.17 28.5825 0.84 26.6025 0.5 24.5625 C0.17 24.5625 -0.16 24.5625 -0.5 24.5625 Z " fill="#FBFBFB" transform="translate(173.5,100.4375)"/>
<path d="M0 0 C1.31476318 -0.00630432 2.62952637 -0.01260864 3.98413086 -0.019104 C5.42561985 -0.01552433 6.86710762 -0.0114224 8.30859375 -0.00683594 C9.78068099 -0.00818261 11.2527678 -0.01012317 12.72485352 -0.01263428 C15.81172923 -0.01558543 18.89848928 -0.01128825 21.98535156 -0.00195312 C25.94681504 0.0094415 29.90800753 0.00288197 33.86946106 -0.00909805 C36.90972952 -0.01631694 39.94993348 -0.01402861 42.99020386 -0.00884247 C44.45108065 -0.00750605 45.91196325 -0.00915344 47.37283325 -0.01380157 C49.4126169 -0.018867 51.45242101 -0.00978073 53.4921875 0 C55.23520142 0.00238678 55.23520142 0.00238678 57.01342773 0.00482178 C59.74609375 0.25878906 59.74609375 0.25878906 61.74609375 2.25878906 C61.99609375 5.25878906 61.99609375 5.25878906 61.74609375 8.25878906 C58.98054445 11.02433836 57.36489588 10.51227507 53.4921875 10.51757812 C52.17742432 10.52388245 50.86266113 10.53018677 49.50805664 10.53668213 C48.06656765 10.53310246 46.62507988 10.52900053 45.18359375 10.52441406 C43.71150651 10.52576074 42.2394197 10.52770129 40.76733398 10.5302124 C37.68045827 10.53316356 34.59369822 10.52886638 31.50683594 10.51953125 C27.54537246 10.50813662 23.58417997 10.51469616 19.62272644 10.52667618 C16.58245798 10.53389507 13.54225402 10.53160674 10.50198364 10.52642059 C9.04110685 10.52508417 7.58022425 10.52673156 6.11935425 10.5313797 C4.0795706 10.53644512 2.03976649 10.52735885 0 10.51757812 C-1.74301392 10.51519135 -1.74301392 10.51519135 -3.52124023 10.51275635 C-6.25390625 10.25878906 -6.25390625 10.25878906 -8.25390625 8.25878906 C-8.50390625 5.25878906 -8.50390625 5.25878906 -8.25390625 2.25878906 C-5.48835695 -0.50676024 -3.87270838 0.00530306 0 0 Z " fill="#FCFCFC" transform="translate(168.25390625,60.7412109375)"/>
<path d="M0 0 C2 2 2 2 2.1953125 4.1640625 C2.17210937 4.97617188 2.14890625 5.78828125 2.125 6.625 C2.10695312 7.44226563 2.08890625 8.25953125 2.0703125 9.1015625 C2.04710937 9.72804688 2.02390625 10.35453125 2 11 C2.62648437 10.97679688 3.25296875 10.95359375 3.8984375 10.9296875 C4.71570313 10.91164063 5.53296875 10.89359375 6.375 10.875 C7.18710938 10.85179688 7.99921875 10.82859375 8.8359375 10.8046875 C11 11 11 11 13 13 C13.32339354 16.03989923 13.45670212 18.14368353 12 20.875 C8.74686316 22.70488947 5.68609891 22.18128355 2 22 C2.061875 23.258125 2.12375 24.51625 2.1875 25.8125 C2.17371263 29.70743136 2.17371263 29.70743136 0.8125 32 C-1.69461993 33.38323858 -3.1819827 33.49315303 -6 33 C-7.8125 31.4375 -7.8125 31.4375 -9 29 C-9.1875 25.25 -9.1875 25.25 -9 22 C-10.60875 22.0928125 -10.60875 22.0928125 -12.25 22.1875 C-16.10866187 21.99456691 -17.28817788 21.60334924 -20 19 C-19.74438677 16.6568787 -19.40729228 14.32156597 -19 12 C-15.78548731 10.39274365 -12.56387464 10.94251815 -9 11 C-9.061875 9.741875 -9.12375 8.48375 -9.1875 7.1875 C-9.16684038 3.29660512 -9.16684038 3.29660512 -7.875 1 C-5.14368353 -0.45670212 -3.03989923 -0.32339354 0 0 Z " fill="#FBFBFB" transform="translate(217,110)"/>
<path d="M0 0 C0.87430664 -0.00953201 1.74861328 -0.01906403 2.64941406 -0.02888489 C4.06818848 -0.02751778 4.06818848 -0.02751778 5.515625 -0.02612305 C6.48467773 -0.03040817 7.45373047 -0.0346933 8.45214844 -0.03910828 C10.50324725 -0.04485738 12.55436646 -0.04534758 14.60546875 -0.04101562 C17.75295572 -0.03785452 20.89950427 -0.06131173 24.046875 -0.08666992 C26.03645714 -0.08894264 28.02604182 -0.08964654 30.015625 -0.08862305 C30.96147461 -0.09783279 31.90732422 -0.10704254 32.88183594 -0.11653137 C33.75614258 -0.11030258 34.63044922 -0.10407379 35.53125 -0.09765625 C36.68802246 -0.09860039 36.68802246 -0.09860039 37.86816406 -0.0995636 C38.49432617 0.0239296 39.12048828 0.14742279 39.765625 0.2746582 C41.765625 3.2746582 41.765625 3.2746582 41.453125 6.3996582 C40.765625 9.2746582 40.765625 9.2746582 39.765625 10.2746582 C38.39502907 10.37777857 37.01922841 10.41314773 35.64477539 10.41992188 C34.33320213 10.42949165 34.33320213 10.42949165 32.99513245 10.43925476 C31.5686161 10.440924 31.5686161 10.440924 30.11328125 10.44262695 C28.65757973 10.44761955 28.65757973 10.44761955 27.17247009 10.45271301 C25.1153918 10.4577865 23.05830525 10.46012121 21.0012207 10.45996094 C17.84507756 10.46214646 14.68928429 10.48029512 11.53320312 10.49926758 C9.5390637 10.50220154 7.54492261 10.50418632 5.55078125 10.50512695 C4.12730125 10.51590523 4.12730125 10.51590523 2.67506409 10.52690125 C1.79752975 10.52382462 0.91999542 10.52074799 0.01586914 10.51757812 C-0.7583287 10.51900314 -1.53252655 10.52042816 -2.33018494 10.52189636 C-4.234375 10.2746582 -4.234375 10.2746582 -6.234375 8.2746582 C-6.484375 5.2746582 -6.484375 5.2746582 -6.234375 2.2746582 C-3.8307917 -0.1289251 -3.28025071 0.01959772 0 0 Z " fill="#FCFCFC" transform="translate(166.234375,40.725341796875)"/>
<path d="M0 0 C1.20978516 0.00322266 2.41957031 0.00644531 3.66601562 0.00976562 C5.47489258 -0.0144043 5.47489258 -0.0144043 7.3203125 -0.0390625 C9.0518457 -0.0400293 9.0518457 -0.0400293 10.81835938 -0.04101562 C11.87917725 -0.04399658 12.93999512 -0.04697754 14.03295898 -0.05004883 C16.72851562 0.32226562 16.72851562 0.32226562 18.60961914 1.68481445 C19.72851562 3.32226562 19.72851562 3.32226562 19.54101562 5.88476562 C18.72851562 8.32226562 18.72851562 8.32226562 16.72851562 10.32226562 C14.14648438 10.58105469 14.14648438 10.58105469 10.91601562 10.58789062 C9.7584375 10.59046875 8.60085937 10.59304687 7.40820312 10.59570312 C6.19390625 10.58796875 4.97960937 10.58023438 3.72851562 10.57226562 C2.51421875 10.58 1.29992187 10.58773437 0.04882812 10.59570312 C-1.68753906 10.59183594 -1.68753906 10.59183594 -3.45898438 10.58789062 C-5.05806641 10.58450684 -5.05806641 10.58450684 -6.68945312 10.58105469 C-9.27148438 10.32226562 -9.27148438 10.32226562 -11.27148438 8.32226562 C-11.52148438 5.32226562 -11.52148438 5.32226562 -11.27148438 2.32226562 C-8.06958725 -0.8796315 -4.3651829 0.02684014 0 0 Z " fill="#FCFCFC" transform="translate(171.271484375,80.677734375)"/>
<path d="M0 0 C1.11246094 -0.00257812 2.22492188 -0.00515625 3.37109375 -0.0078125 C4.53769531 -0.00007813 5.70429688 0.00765625 6.90625 0.015625 C8.07285156 0.00789063 9.23945313 0.00015625 10.44140625 -0.0078125 C11.55386719 -0.00523438 12.66632813 -0.00265625 13.8125 0 C14.83666016 0.00225586 15.86082031 0.00451172 16.91601562 0.00683594 C19.40625 0.265625 19.40625 0.265625 21.40625 2.265625 C21.65625 5.265625 21.65625 5.265625 21.40625 8.265625 C18.25750961 11.41436539 14.78724849 10.56039373 10.49023438 10.58789062 C9.32814453 10.58466797 8.16605469 10.58144531 6.96875 10.578125 C5.81052734 10.59423828 4.65230469 10.61035156 3.45898438 10.62695312 C2.34974609 10.62759766 1.24050781 10.62824219 0.09765625 10.62890625 C-1.43072876 10.63337769 -1.43072876 10.63337769 -2.98999023 10.63793945 C-5.59375 10.265625 -5.59375 10.265625 -7.46118164 8.90307617 C-8.59375 7.265625 -8.59375 7.265625 -8.40625 4.703125 C-6.80979748 -0.08623256 -4.63067742 0.01019973 0 0 Z " fill="#FCFCFC" transform="translate(208.59375,80.734375)"/>
<path d="M0 0 C3.0625 0.375 3.0625 0.375 5.0625 2 C6.0625 4.375 6.0625 4.375 5.25 7.625 C4.858125 8.5325 4.46625 9.44 4.0625 10.375 C1.08461118 11.28491047 -0.37247994 11.63460381 -3.25 10.3125 C-4.9375 8.375 -4.9375 8.375 -5.3125 5.3125 C-4.79949545 1.29396438 -4.01853562 0.51300455 0 0 Z " fill="#FBFBFB" transform="translate(127.9375,8.625)"/>
<path d="M0 0 C3 0.25 3 0.25 5 2.25 C5.25 5.25 5.25 5.25 5 8.25 C3 10.25 3 10.25 0 10.5 C-3 10.25 -3 10.25 -5 8.25 C-5.25 5.25 -5.25 5.25 -5 2.25 C-3 0.25 -3 0.25 0 0 Z " fill="#FCFCFC" transform="translate(225,40.75)"/>
</svg>
