<?xml version="1.0" encoding="UTF-8"?>
<svg id="Layer_1" xmlns="http://www.w3.org/2000/svg" version="1.1" viewBox="0 0 300 125">
  <!-- Generator: Adobe Illustrator 29.5.1, SVG Export Plug-In . SVG Version: 2.1.0 Build 141)  -->
  <defs>
    <style>
      .st0 {
        fill: #243572;
      }

      .st1 {
        fill: #b3a1ce;
      }
    </style>
  </defs>
  <path class="st1" d="M75.5,30c5.5,4.6,10.9,9.3,16.2,14,16.9-15.6,35.4-29.7,55.8-40.5-19.3,7.9-37.2,18.5-54.2,30.8-5.8-1.8-11.7-3.3-17.8-4.3"/>
  <path class="st0" d="M170.6,36c-1.9-1-7.2-3.3-12.8-3.3s-6.9,2.2-6.9,7.1c0,11.1,23.3,10.1,23.3,25.6s-8.1,14.2-18,14.2-11-1.5-12.5-1.8v-5.8c2.2,1.3,7.9,4.3,13.7,4.3s9-1.8,9-8.5c0-11.7-23.3-10.6-23.3-25.9s6-12.5,16.1-12.5,9.6,1,11.5,1.3v5.3h0,0ZM187.2,54.7c0,9,1.3,21.5,12,21.5s11.6-12.3,11.6-21.5-.6-21.9-11.6-21.9-12,12.2-12,21.9M216.6,86.9c-2.1.5-4.2.9-6.4.9-11,0-15.2-1.8-17.6-8.9-9.8-2-13.4-11.2-13.4-24.2s4.3-25.3,19.9-25.3,19.4,9.8,19.4,25.3-3.7,23.2-15.5,24.7c1.4,3.3,3.4,5.2,9.5,5.2s2.6-.2,4-.4v2.7h.2,0ZM230.4,60.4h15.9l-8.2-21.1-7.7,21.1ZM233.6,39.4c.4-1.2,1.2-3.7,1.2-4.2,0-2.9-2.6-3-5.5-3.4v-1.6h13.4l17.5,48.6h-7.5l-5.4-15.1h-18.3l-5.4,15h-4.4l14.3-39.4h0ZM114.7,82.4c-8.1-8.1-16.2-16.2-24.3-24.2-17.7,17.8-37.4,42-50.7,63.3,13.7-17,32.9-37.2,49.5-51.4,8.5,4.1,17,8.1,25.4,12.3M126.5,26.8c-9.7,7.4-19,15.3-27.8,23.6,19.9,18.3,25.9,23.9,44.9,43-14.6-19.9-17.7-25.4-32.7-44.5,4.8-7.6,10-15,15.5-22.1M59.7,78.7c7.6-9.5,15.7-18.6,24.3-27.3-8.3-8.3-16.5-16.5-24.9-24.7,3.7,9.4,9.3,18.3,14.6,26.8-5,8.2-9.7,16.6-13.9,25.2"/>
</svg>